<svg width="200" height="200" viewBox="0 0 200 200" xmlns="http://www.w3.org/2000/svg" xmlns:xlink="http://www.w3.org/1999/xlink"><title>3</title><defs><path id="a" d="M0 127.486h123.593V0H0z"/></defs><g transform="translate(38 36)" fill="none" fill-rule="evenodd"><path d="M10.308 114.84c-1.069.403-2.28.605-3.638.605-4.447 0-6.67-2.15-6.67-6.452 0-4.072 2.223-6.108 6.67-6.108 1.357 0 2.57.203 3.638.606v2.08a8.657 8.657 0 0 0-3.465-.694c-2.974 0-4.46 1.373-4.46 4.116 0 2.974 1.486 4.46 4.46 4.46 1.241 0 2.396-.23 3.465-.693v2.08zM12.474 115.342v-12.37h5.63c2.53 0 3.794 1.106 3.794 3.318 0 1.496-.984 2.734-2.953 3.716l3.924 5.353h-2.894l-3.768-5.396v-1.048c2.195-.376 3.292-1.227 3.292-2.556 0-.913-.514-1.369-1.542-1.369h-3.144v10.352h-2.34zM32.432 102.972v1.975h-6.203v3.118h5.908v2.053h-5.934v3.25h6.35v1.991h-8.601v-12.387zM35.948 115.359h-2.356l5.258-12.387h2.47l5.37 12.387h-2.47l-1.412-3.378h-4.114l.788-1.993h2.495l-1.949-4.651zM55.005 102.972v1.992h-3.552v10.395h-2.295v-10.395h-3.552v-1.992z" fill="#1F221A"/><mask id="b" fill="#fff"><use xlink:href="#a"/></mask><path fill="#1F221A" mask="url(#b)" d="M56.305 115.359H58.6v-12.387h-2.295zM72.997 102.972l-5.431 12.387h-2.47L59.9 102.972h2.728l3.838 9.485 3.828-9.485zM82.776 102.972v1.975h-6.202v3.118h5.908v2.053h-5.935v3.25h6.35v1.991h-8.6v-12.387z"/><path fill="#0A7D3F" mask="url(#b)" d="M97.398 102.972v1.975h-6.202v3.118h5.908v2.053H91.17v3.25h6.349v1.991h-8.601v-12.387zM109.517 114.84c-1.07.403-2.281.605-3.64.605-4.445 0-6.668-2.15-6.668-6.452 0-4.072 2.223-6.108 6.669-6.108 1.358 0 2.57.203 3.639.606v2.08a8.657 8.657 0 0 0-3.465-.694c-2.974 0-4.461 1.373-4.461 4.116 0 2.974 1.487 4.46 4.46 4.46 1.242 0 2.397-.23 3.466-.693v2.08zM117.468 113.453c2.495 0 3.742-1.44 3.742-4.322 0-2.836-1.247-4.254-3.742-4.254-2.558 0-3.837 1.418-3.837 4.254 0 2.882 1.28 4.322 3.837 4.322m-6.219-4.27c0-4.198 2.073-6.298 6.22-6.298 4.082 0 6.124 2.1 6.124 6.297 0 4.176-2.042 6.264-6.125 6.264-3.96 0-6.035-2.088-6.219-6.264"/><path d="M7.901 127.345v-2.677a49.039 49.039 0 0 1-2.273-3.832h.742c.263.551.554 1.11.871 1.676.317.567.648 1.107.993 1.621.333-.514.66-1.054.98-1.62.32-.567.615-1.126.885-1.677h.695c-.332.595-.683 1.214-1.052 1.855a41.2 41.2 0 0 1-1.202 1.958v2.696h-.639zM16.918 124.086a3.81 3.81 0 0 0-.17-1.179 2.595 2.595 0 0 0-.479-.887 2.034 2.034 0 0 0-.746-.559 2.412 2.412 0 0 0-.982-.192c-.363 0-.69.064-.98.192-.293.128-.54.314-.748.56-.207.243-.366.54-.479.886a3.81 3.81 0 0 0-.168 1.18c0 .437.056.831.168 1.178.114.347.273.643.48.887.207.245.454.433.746.564.291.131.618.197.981.197.364 0 .69-.066.982-.197a2.08 2.08 0 0 0 .747-.564c.207-.244.366-.54.479-.887.113-.347.169-.74.169-1.179m.675 0c0 .558-.08 1.05-.244 1.475a3.088 3.088 0 0 1-.662 1.066 2.738 2.738 0 0 1-.972.643c-.37.144-.76.216-1.174.216a3.2 3.2 0 0 1-1.174-.216 2.73 2.73 0 0 1-.972-.643 3.073 3.073 0 0 1-.662-1.066c-.163-.426-.244-.917-.244-1.475 0-.557.081-1.047.244-1.47a3.07 3.07 0 0 1 .662-1.06 2.73 2.73 0 0 1 .973-.644 3.2 3.2 0 0 1 1.173-.217c.413 0 .804.073 1.175.217.368.144.693.358.972.643.277.285.498.638.662 1.061.162.423.243.913.243 1.47M21.679 127.486c-.432 0-.8-.065-1.104-.197a1.909 1.909 0 0 1-.737-.545 2.197 2.197 0 0 1-.408-.812 3.817 3.817 0 0 1-.127-1.001v-4.094h.639v4.01c0 .357.042.665.127.925.084.26.2.474.352.643.15.17.33.295.545.376.212.082.45.122.713.122.263 0 .5-.04.714-.122.213-.081.394-.206.545-.376.15-.169.267-.383.352-.643.085-.26.127-.568.127-.925v-4.01h.638v4.094c0 .357-.042.691-.126 1.001-.085.309-.221.58-.41.812a1.909 1.909 0 0 1-.736.545c-.304.132-.671.197-1.104.197M27.737 121.334c-.238 0-.446.008-.625.023-.178.017-.327.03-.446.043v2.77h.883c.294 0 .573-.013.836-.042.263-.028.492-.09.685-.188.194-.097.348-.236.46-.418.113-.18.17-.428.17-.74 0-.289-.057-.528-.17-.715a1.281 1.281 0 0 0-.44-.446 1.783 1.783 0 0 0-.625-.225 4.231 4.231 0 0 0-.728-.062m2.629 1.456c0 .488-.128.873-.384 1.155-.257.282-.596.486-1.015.611.1.125.23.294.39.507.16.213.324.446.493.7.169.253.335.518.498.793.162.276.3.54.413.79h-.686a13.01 13.01 0 0 0-.427-.752 18.236 18.236 0 0 0-.934-1.38l-.394-.527a6.382 6.382 0 0 1-.602.028h-1.052v2.63h-.638v-6.386c.225-.063.489-.108.793-.137.304-.028.584-.042.84-.042.896 0 1.57.17 2.025.507.454.34.68.84.68 1.503M37.298 127.486c-.42 0-.81-.075-1.17-.226a2.64 2.64 0 0 1-.938-.657 3.097 3.097 0 0 1-.63-1.066c-.154-.423-.23-.906-.23-1.451s.083-1.028.249-1.451c.166-.422.386-.778.662-1.066.276-.288.595-.505.958-.652a2.983 2.983 0 0 1 1.137-.222c.244 0 .466.017.666.048a3.616 3.616 0 0 1 .91.258c.108.047.189.089.245.127l-.206.554a3.799 3.799 0 0 0-.596-.277c-.242-.091-.54-.136-.897-.136-.408 0-.763.069-1.066.206a2.105 2.105 0 0 0-.766.583c-.206.25-.361.548-.465.892a3.989 3.989 0 0 0-.155 1.145c0 .433.052.823.155 1.17.104.347.255.643.456.888.2.244.446.432.737.563.29.131.625.197 1 .197.414 0 .759-.039 1.038-.117a2.98 2.98 0 0 0 .634-.24l.178.545a1.028 1.028 0 0 1-.225.108 4.38 4.38 0 0 1-.967.235 5.523 5.523 0 0 1-.714.042M45.704 124.086a3.81 3.81 0 0 0-.17-1.179 2.595 2.595 0 0 0-.478-.887 2.042 2.042 0 0 0-.747-.559 2.412 2.412 0 0 0-.981-.192c-.363 0-.69.064-.982.192a2.03 2.03 0 0 0-.746.56c-.207.243-.367.54-.48.886a3.81 3.81 0 0 0-.168 1.18c0 .437.056.831.169 1.178.112.347.272.643.479.887.206.245.455.433.746.564.292.131.619.197.982.197s.69-.066.98-.197c.292-.13.54-.319.748-.564.207-.244.366-.54.479-.887.113-.347.169-.74.169-1.179m.676 0c0 .558-.081 1.05-.244 1.475a3.088 3.088 0 0 1-.662 1.066 2.738 2.738 0 0 1-.972.643c-.37.144-.761.216-1.174.216a3.2 3.2 0 0 1-1.174-.216 2.72 2.72 0 0 1-.972-.643 3.09 3.09 0 0 1-.663-1.066c-.162-.426-.243-.917-.243-1.475 0-.557.08-1.047.243-1.47.164-.423.384-.776.663-1.06a2.72 2.72 0 0 1 .972-.644 3.2 3.2 0 0 1 1.174-.217c.413 0 .804.073 1.174.217.369.144.693.358.972.643.278.285.499.638.662 1.061.163.423.244.913.244 1.47M51.047 126.406a17.795 17.795 0 0 0-.269-.62 47.794 47.794 0 0 0-.392-.84c-.144-.304-.292-.617-.443-.94-.15-.322-.295-.624-.434-.906-.138-.281-.26-.53-.367-.742a12.615 12.615 0 0 0-.236-.451 47.367 47.367 0 0 0-.192 2.55c-.048.918-.09 1.88-.127 2.888h-.63c.056-1.183.121-2.316.193-3.4.072-1.083.161-2.12.267-3.108h.564c.188.313.39.674.602 1.085.214.41.425.836.635 1.277.21.44.414.876.612 1.305.198.429.372.816.522 1.16a103.524 103.524 0 0 1 1.134-2.465c.21-.441.422-.867.636-1.277.213-.411.414-.772.602-1.085h.535c.106.989.196 2.025.267 3.109.073 1.083.137 2.216.193 3.399h-.648c-.037-1.008-.08-1.97-.127-2.888a48.417 48.417 0 0 0-.192-2.55c-.05.088-.128.238-.235.45l-.366.743c-.138.282-.282.584-.432.907-.15.322-.297.635-.442.939-.144.304-.273.584-.389.84-.116.257-.206.464-.268.62h-.573zM58.223 121.334c-.238 0-.44.008-.605.023-.167.017-.31.03-.428.043v2.874h.808c.344 0 .656-.02.934-.06.279-.042.517-.117.714-.227.197-.109.349-.26.455-.455.107-.194.16-.44.16-.742 0-.288-.058-.526-.174-.714a1.285 1.285 0 0 0-.46-.446 2.029 2.029 0 0 0-.653-.23 4.221 4.221 0 0 0-.751-.066m-.028-.554c.92 0 1.606.176 2.057.526.45.351.676.848.676 1.493 0 .37-.066.684-.197.944-.132.26-.32.47-.564.63a2.567 2.567 0 0 1-.897.347 6.033 6.033 0 0 1-1.197.108h-.883v2.517h-.64v-6.386c.227-.063.49-.108.795-.137.304-.028.587-.042.85-.042M64.2 121.57a61.53 61.53 0 0 0-.687 1.646 74.38 74.38 0 0 0-.693 1.8h2.778a61.89 61.89 0 0 0-1.397-3.447zm2.24 5.776c-.124-.32-.238-.627-.342-.922a77.364 77.364 0 0 1-.3-.864h-3.18c-.107.281-.213.57-.317.865-.104.296-.214.603-.33.92h-.667c.247-.677.48-1.308.7-1.894a71.31 71.31 0 0 1 1.277-3.166c.208-.481.427-.965.657-1.448h.563c.229.481.448.963.653 1.445a67.449 67.449 0 0 1 1.273 3.169c.217.586.457 1.217.718 1.894h-.704zM72.818 127.345a19.296 19.296 0 0 0-.455-.77c-.182-.297-.385-.61-.608-.943-.223-.332-.456-.676-.698-1.03-.242-.356-.484-.7-.724-1.036a28.322 28.322 0 0 0-1.32-1.703v5.482h-.628v-6.509h.507c.32.357.662.77 1.027 1.236.366.468.724.944 1.074 1.43.35.484.679.958.983 1.421.303.463.553.866.748 1.21v-5.297h.629v6.51h-.535zM76.875 127.345v-2.677a49.039 49.039 0 0 1-2.272-3.832h.741c.264.551.554 1.11.871 1.676.317.567.648 1.107.993 1.621.333-.514.66-1.054.979-1.62.321-.567.616-1.126.886-1.677h.695c-.332.595-.683 1.214-1.052 1.855a41.237 41.237 0 0 1-1.203 1.958v2.696h-.638zM84.858 126.932c.507 0 .902-.092 1.184-.277.28-.186.422-.485.422-.9 0-.238-.045-.437-.136-.597a1.275 1.275 0 0 0-.362-.405 2.308 2.308 0 0 0-.516-.281c-.195-.078-.398-.161-.611-.248a7.122 7.122 0 0 1-.723-.326 2.49 2.49 0 0 1-.545-.38 1.441 1.441 0 0 1-.342-.483 1.595 1.595 0 0 1-.118-.64c0-.556.185-.98.554-1.267.37-.288.883-.432 1.54-.432a3.843 3.843 0 0 1 1.394.272c.123.05.225.104.306.16l-.225.535a2.274 2.274 0 0 0-.662-.3 2.984 2.984 0 0 0-1.41-.052 1.235 1.235 0 0 0-.445.197.99.99 0 0 0-.296.343 1.065 1.065 0 0 0-.108.498c0 .2.038.37.113.507.075.138.18.257.315.357.134.1.293.19.474.272.18.082.379.166.592.254.256.107.499.213.728.319.228.107.427.232.596.376.169.144.303.319.404.526.1.206.15.46.15.76 0 .589-.205 1.03-.615 1.325-.41.294-.966.44-1.667.44a4.509 4.509 0 0 1-1.24-.163 3.264 3.264 0 0 1-.413-.146 2.55 2.55 0 0 1-.263-.131l.206-.554a3.295 3.295 0 0 0 1.118.394c.182.03.382.047.6.047M92.325 126.791v.554h-3.7v-6.509h.638v5.955zM98.495 124.086a3.81 3.81 0 0 0-.169-1.179 2.578 2.578 0 0 0-.479-.887 2.034 2.034 0 0 0-.747-.559 2.412 2.412 0 0 0-.98-.192c-.365 0-.69.064-.982.192a2.034 2.034 0 0 0-.747.56c-.207.243-.367.54-.479.886a3.81 3.81 0 0 0-.169 1.18c0 .437.056.831.17 1.178.111.347.271.643.478.887.206.245.456.433.747.564.291.131.617.197.981.197.363 0 .69-.066.981-.197a2.08 2.08 0 0 0 .747-.564c.207-.244.367-.54.48-.887.112-.347.168-.74.168-1.179m.677 0c0 .558-.082 1.05-.245 1.475a3.059 3.059 0 0 1-.662 1.066 2.738 2.738 0 0 1-.972.643c-.37.144-.76.216-1.174.216a3.2 3.2 0 0 1-1.174-.216 2.72 2.72 0 0 1-.972-.643 3.059 3.059 0 0 1-.662-1.066c-.163-.426-.245-.917-.245-1.475 0-.557.082-1.047.245-1.47.162-.423.383-.776.662-1.06a2.72 2.72 0 0 1 .972-.644 3.2 3.2 0 0 1 1.174-.217c.413 0 .804.073 1.174.217.37.144.693.358.972.643.28.285.5.638.662 1.061.163.423.245.913.245 1.47M104.966 124.265h.638v2.902c-.119.05-.352.114-.7.192a5.944 5.944 0 0 1-1.28.118 3.05 3.05 0 0 1-1.185-.226 2.66 2.66 0 0 1-.944-.653 2.99 2.99 0 0 1-.624-1.061c-.15-.422-.226-.906-.226-1.451s.081-1.028.244-1.45c.163-.423.384-.777.662-1.062.28-.285.603-.502.973-.653a3.11 3.11 0 0 1 1.183-.225c.482 0 .88.05 1.193.155.313.103.541.202.686.296l-.217.544c-.175-.125-.413-.226-.714-.305a3.874 3.874 0 0 0-.976-.117c-.326 0-.632.059-.92.178a2.047 2.047 0 0 0-.752.536c-.212.238-.38.532-.502.883-.122.35-.184.757-.184 1.22 0 .432.05.822.151 1.17.1.347.251.644.455.892.204.247.456.437.756.568.301.132.648.197 1.042.197a5.3 5.3 0 0 0 .804-.051 2.27 2.27 0 0 0 .437-.1v-2.497zM109.545 121.57a66.892 66.892 0 0 0-1.381 3.447h2.777a59.156 59.156 0 0 0-.702-1.804 69.983 69.983 0 0 0-.694-1.643zm2.239 5.776c-.124-.32-.238-.627-.342-.922a50.7 50.7 0 0 1-.3-.864h-3.18c-.107.281-.214.57-.317.865-.104.296-.215.603-.331.92h-.667c.248-.677.48-1.308.7-1.894a67.211 67.211 0 0 1 1.277-3.166c.209-.481.428-.965.657-1.448h.564c.229.481.447.963.653 1.445.206.484.415.986.627 1.508.212.521.427 1.075.645 1.661.218.587.458 1.218.719 1.895h-.705zM118.162 127.345a20.586 20.586 0 0 0-.455-.77c-.183-.297-.385-.61-.608-.943-.223-.332-.456-.676-.698-1.03a54.11 54.11 0 0 0-.725-1.036 28.34 28.34 0 0 0-1.318-1.703v5.482h-.63v-6.509h.508c.32.357.662.77 1.027 1.236.365.468.723.944 1.074 1.43.35.484.68.958.982 1.421.305.463.554.866.748 1.21v-5.297h.63v6.51h-.535z" fill="#42443B" mask="url(#b)"/><path fill="#52B547" mask="url(#b)" d="M33.808 18.721V8.287l14.353 8.287-10.461 6.04-6.04 10.46-8.287-14.353zM87.804 18.721h10.434l-8.286 14.353-6.04-10.46-10.46-6.04 14.352-8.287zM87.804 72.718v10.435l-14.353-8.287 10.461-6.04 6.04-10.461 8.286 14.353zM33.808 72.718H23.373l8.288-14.353 6.039 10.46 10.46 6.04-14.352 8.288z"/><path fill="#A1C53A" mask="url(#b)" d="M60.806 7.301L48.16.001 33.807 8.286l14.353 8.286 12.646-7.3 12.645 7.3 14.353-8.286L73.451 0zM99.225 45.72l7.3-12.646L98.24 18.72l-8.286 14.353 7.3 12.646-7.3 12.645 8.286 14.353 8.287-14.353h-.001zM60.806 84.138l12.645 7.301 14.353-8.287-14.353-8.286-12.645 7.3-12.646-7.3-14.353 8.286L48.16 91.44zM22.388 45.72l-7.301 12.645 8.286 14.353 8.287-14.353-7.301-12.645 7.3-12.646-8.286-14.353-8.286 14.353z"/><path d="M48.16 33.074v-16.5l12.647 7.3 12.645-7.3v16.5h16.5L82.652 45.72l7.302 12.645H73.452v16.501l-12.645-7.302-12.646 7.302v-16.5h-16.5l7.3-12.646-7.3-12.646h16.5zm12.647-7.228l-12.6 7.274-7.274 12.6 7.274 12.6 12.6 7.273 12.599-7.274L80.68 45.72l-7.274-12.6-12.6-7.274z" fill="#0C542A" mask="url(#b)"/><path fill="#0A7D3F" mask="url(#b)" d="M37.7 22.613l10.46-6.04v16.501h-16.5zM83.912 22.613l6.04 10.461h-16.5v-16.5zM83.912 68.826l-10.46 6.04V58.365h16.5zM37.7 68.826l-6.04-10.461h16.5v16.5z"/><path fill="#0A7D3F" mask="url(#b)" d="M60.806 23.875L48.16 16.574l12.646-7.301 12.645 7.3zM82.65 45.72l7.302-12.646 7.3 12.646-7.3 12.645zM60.806 67.565l12.645 7.3-12.645 7.302-12.646-7.301zM38.96 45.72l-7.3 12.645-7.301-12.645 7.3-12.646z"/></g></svg>
