<svg width="200" height="200" viewBox="0 0 200 200" xmlns="http://www.w3.org/2000/svg" xmlns:xlink="http://www.w3.org/1999/xlink"><title>6</title><defs><path id="a" d="M0 136h155.009V.51H0z"/></defs><g transform="translate(22 32.49)" fill="none" fill-rule="evenodd"><path d="M31.923 116.376c3.698 0 5.549-2.178 5.549-6.534 0-3.708-1.851-5.562-5.55-5.562h-3.678v12.096h3.679zm-6.983 2.868v-17.832h6.983c5.9 0 8.854 2.81 8.854 8.43 0 6.268-2.953 9.402-8.854 9.402H24.94zM43.27 118.495v-2.992c1.786.664 3.807.997 6.06.997 2.735 0 4.102-.915 4.102-2.744 0-1.329-.84-1.994-2.519-1.994h-2.792c-3.65 0-5.474-1.663-5.474-4.988 0-3.658 2.598-5.487 7.793-5.487 1.995 0 3.887.291 5.674.874v2.992c-1.787-.665-3.678-.998-5.674-.998-2.992 0-4.49.873-4.49 2.62 0 1.33.723 1.993 2.17 1.993h2.794c3.881 0 5.822 1.664 5.822 4.988 0 3.741-2.468 5.612-7.405 5.612-2.254 0-4.275-.29-6.062-.873" fill="#1AB6E7"/><path d="M65.153 119.244v-17.832h7.981c3.641 0 5.461 1.676 5.461 5.026 0 3.633-2.489 5.83-7.468 6.596l-.474-2.943c2.992-.54 4.488-1.725 4.488-3.554 0-1.48-.739-2.22-2.219-2.22h-4.464v14.927h-3.305zM89.107 116.5c3.592 0 5.387-2.073 5.387-6.222 0-4.082-1.795-6.123-5.387-6.123-3.683 0-5.523 2.041-5.523 6.123 0 4.148 1.84 6.222 5.523 6.222m-8.953-6.147c0-6.043 2.984-9.066 8.953-9.066 5.878 0 8.816 3.022 8.816 9.066 0 6.01-2.938 9.016-8.816 9.016-5.703 0-8.687-3.005-8.953-9.016M99.606 101.412h3.354l1.91 12.806 4.637-12.806h3.18l4.34 12.307 2.02-12.307h3.253l-3.353 17.832h-3.143l-4.9-13.992-5.263 13.992h-3.104zM136.816 101.412v2.843h-8.929v4.49h8.504v2.954h-8.542v4.677h9.141v2.868h-12.382v-17.832zM140.045 119.218v-17.806h8.105c3.642 0 5.462 1.592 5.462 4.775 0 2.153-1.417 3.937-4.252 5.35l5.649 7.706h-4.165l-5.424-7.768v-1.509c3.159-.54 4.738-1.766 4.738-3.678 0-1.315-.74-1.97-2.22-1.97h-4.526v14.9h-3.367z" fill="#8CC63E"/><path d="M35.716 136c-.37 0-.715-.066-1.032-.199a2.328 2.328 0 0 1-.828-.58 2.74 2.74 0 0 1-.556-.941 3.721 3.721 0 0 1-.203-1.28c0-.48.073-.907.22-1.28a2.82 2.82 0 0 1 .585-.941c.242-.253.524-.445.844-.575.32-.13.655-.195 1.002-.195.216 0 .412.014.589.041a3.229 3.229 0 0 1 .804.228c.094.042.166.079.215.112l-.182.489a3.333 3.333 0 0 0-.526-.245 2.268 2.268 0 0 0-.791-.119c-.36 0-.673.061-.941.181a1.881 1.881 0 0 0-.676.514 2.272 2.272 0 0 0-.41.788 3.517 3.517 0 0 0-.136 1.011c0 .381.045.724.136 1.032.092.306.225.567.403.782.176.216.393.381.65.497.257.117.55.175.883.175.364 0 .669-.035.915-.104.246-.069.432-.14.559-.211l.158.48a.93.93 0 0 1-.2.095 3.696 3.696 0 0 1-.852.208 4.836 4.836 0 0 1-.63.037M41.275 130.573c-.21 0-.394.006-.55.02-.158.014-.29.027-.394.038v2.444h.78c.258 0 .504-.013.736-.038.232-.024.434-.08.605-.165a.984.984 0 0 0 .406-.37c.1-.158.15-.377.15-.653 0-.255-.05-.464-.15-.63a1.12 1.12 0 0 0-.39-.393 1.568 1.568 0 0 0-.55-.2 3.857 3.857 0 0 0-.643-.053m2.32 1.284c0 .43-.113.77-.34 1.019a1.92 1.92 0 0 1-.894.539c.088.11.203.26.344.447.14.188.286.394.434.618.15.223.296.457.44.7.143.243.265.476.364.696h-.605a12.08 12.08 0 0 0-.376-.663 16.51 16.51 0 0 0-.825-1.22l-.348-.462a5.549 5.549 0 0 1-.53.024h-.928v2.32h-.564v-5.634c.2-.055.433-.095.7-.12.268-.025.516-.037.742-.037.79 0 1.385.149 1.786.447.4.298.6.74.6 1.326M46.28 135.875v-5.743h3.314v.49h-2.75v1.996h2.453v.482h-2.454v2.287h2.967v.488zM54.305 130.78c-.207.476-.41.96-.606 1.452-.198.491-.401 1.02-.613 1.59h2.45c-.21-.57-.417-1.1-.618-1.593-.2-.492-.405-.975-.613-1.45zm1.977 5.095c-.11-.282-.21-.553-.303-.813-.092-.26-.18-.514-.264-.76H52.91c-.095.247-.19.501-.281.762-.092.26-.19.53-.291.811h-.59c.219-.597.425-1.155.62-1.67a57.361 57.361 0 0 1 1.125-2.794c.184-.425.377-.85.58-1.278h.497c.203.425.395.851.577 1.276a58.538 58.538 0 0 1 1.122 2.795c.192.517.403 1.074.635 1.671h-.622zM62.331 130.133v.49h-1.84v5.253h-.563v-5.253h-1.84v-.49z" fill="#808184"/><mask id="b" fill="#fff"><use xlink:href="#a"/></mask><path fill="#808184" mask="url(#b)" d="M64.617 135.876h.564v-5.743h-.564zM68.031 130.133a105.776 105.776 0 0 0 1.394 3.882c.153.395.32.794.5 1.198.171-.397.335-.792.491-1.188a59.151 59.151 0 0 0 .924-2.49c.152-.441.311-.908.478-1.402h.597a98.795 98.795 0 0 1-1.25 3.392 48.453 48.453 0 0 1-.988 2.351h-.529c-.168-.383-.332-.761-.492-1.134-.16-.372-.329-.78-.505-1.221a66.428 66.428 0 0 1-.566-1.482c-.202-.547-.43-1.182-.684-1.906h.63zM74.627 135.875v-5.743h3.315v.49h-2.751v1.996h2.453v.482h-2.453v2.287h2.966v.488zM85.135 135.511c.447 0 .795-.082 1.044-.245.248-.164.372-.427.372-.793 0-.21-.04-.386-.12-.528a1.147 1.147 0 0 0-.318-.357 2.073 2.073 0 0 0-.457-.248l-.54-.219a6.342 6.342 0 0 1-.636-.288 2.177 2.177 0 0 1-.481-.335 1.248 1.248 0 0 1-.302-.426 1.416 1.416 0 0 1-.103-.564c0-.49.162-.864.488-1.118.326-.254.779-.38 1.359-.38.155 0 .306.01.456.032a3.475 3.475 0 0 1 .774.207c.109.044.198.091.27.141l-.2.472a2.013 2.013 0 0 0-.584-.265 2.655 2.655 0 0 0-1.243-.046 1.123 1.123 0 0 0-.392.174.85.85 0 0 0-.262.303.942.942 0 0 0-.095.44c0 .176.033.325.099.446a.957.957 0 0 0 .278.315c.118.09.258.17.418.241.16.072.335.146.523.223.226.094.44.19.642.282.2.094.377.205.526.332a1.4 1.4 0 0 1 .356.464c.088.182.133.406.133.671 0 .52-.182.908-.543 1.168-.362.26-.853.39-1.471.39a3.986 3.986 0 0 1-1.094-.145 2.822 2.822 0 0 1-.596-.245l.18-.489a2.838 2.838 0 0 0 .987.348 3.1 3.1 0 0 0 .532.042M91.962 136c-.37 0-.714-.066-1.031-.199a2.331 2.331 0 0 1-.83-.58 2.738 2.738 0 0 1-.554-.941 3.721 3.721 0 0 1-.203-1.28c0-.48.073-.907.219-1.28.146-.373.34-.686.585-.941.243-.253.524-.445.844-.575a2.65 2.65 0 0 1 1.003-.195c.216 0 .41.014.589.041a3.213 3.213 0 0 1 .803.228c.095.042.166.079.216.112l-.183.489a3.361 3.361 0 0 0-.525-.245 2.27 2.27 0 0 0-.792-.119 2.29 2.29 0 0 0-.941.181 1.878 1.878 0 0 0-.675.514 2.239 2.239 0 0 0-.41.788 3.517 3.517 0 0 0-.136 1.011c0 .381.045.724.136 1.032.09.306.225.567.402.782.176.216.393.381.65.497.257.117.55.175.883.175.365 0 .67-.035.916-.104.245-.069.43-.14.558-.211l.159.48a.97.97 0 0 1-.2.095 3.665 3.665 0 0 1-.853.208 4.814 4.814 0 0 1-.63.037M99.693 130.133h.563v5.743h-.563v-2.76h-3.115v2.76h-.565v-5.743h.565v2.495h3.115zM107.697 133c0-.387-.05-.732-.148-1.04a2.297 2.297 0 0 0-.423-.782 1.813 1.813 0 0 0-.659-.493 2.128 2.128 0 0 0-.866-.17c-.32 0-.609.056-.866.17a1.804 1.804 0 0 0-.659.493 2.297 2.297 0 0 0-.423.782 3.38 3.38 0 0 0-.148 1.04c0 .387.05.733.148 1.04.1.306.241.567.423.784.183.214.402.38.66.496.256.117.544.174.865.174.321 0 .61-.058.866-.173a1.87 1.87 0 0 0 .66-.498c.181-.216.322-.477.422-.782.098-.308.148-.654.148-1.04m.597 0c0 .492-.072.924-.215 1.3a2.711 2.711 0 0 1-.585.94 2.389 2.389 0 0 1-.858.569c-.326.126-.67.19-1.035.19-.365 0-.71-.064-1.036-.19a2.406 2.406 0 0 1-.858-.569 2.724 2.724 0 0 1-.584-.94 3.643 3.643 0 0 1-.215-1.3c0-.493.072-.924.215-1.298a2.74 2.74 0 0 1 .584-.936c.246-.251.532-.44.858-.567.325-.127.671-.19 1.036-.19s.71.063 1.035.19a2.4 2.4 0 0 1 .858.567c.246.251.441.564.585.936.143.374.215.805.215 1.297M115.503 133c0-.387-.05-.732-.148-1.04a2.315 2.315 0 0 0-.423-.782 1.818 1.818 0 0 0-.658-.493 2.137 2.137 0 0 0-.868-.17c-.32 0-.608.056-.865.17a1.804 1.804 0 0 0-.66.493 2.28 2.28 0 0 0-.422.782 3.38 3.38 0 0 0-.148 1.04c0 .387.049.733.148 1.04.1.306.24.567.423.784.183.214.402.38.659.496.257.117.545.174.865.174.322 0 .61-.058.868-.173.255-.117.475-.282.658-.498.18-.216.323-.477.423-.782.098-.308.148-.654.148-1.04m.597 0c0 .492-.072.924-.215 1.3a2.74 2.74 0 0 1-.584.94 2.401 2.401 0 0 1-.86.569c-.325.126-.67.19-1.035.19-.364 0-.71-.064-1.035-.19a2.394 2.394 0 0 1-.857-.569 2.697 2.697 0 0 1-.585-.94c-.144-.375-.215-.808-.215-1.3 0-.493.07-.924.215-1.298.143-.373.339-.685.585-.936.245-.251.53-.44.857-.567.326-.127.67-.19 1.035-.19.366 0 .71.063 1.036.19.327.127.613.316.859.567.245.251.439.564.584.936.143.374.215.805.215 1.297M122.016 135.387v.489h-3.265v-5.743h.564v5.254z"/><path d="M49.726 36.034a5.923 5.923 0 0 1 10.745 1.058 16.174 16.174 0 0 0 15.335 10.997A16.174 16.174 0 0 0 91.14 37.092a5.922 5.922 0 0 1 7.508-3.714 5.895 5.895 0 0 1 3.237 2.656 5.924 5.924 0 0 1-6.289 8.777 16.171 16.171 0 0 0-17.19 7.782 16.173 16.173 0 0 0 1.855 18.778 5.924 5.924 0 0 1-4.456 9.835 5.924 5.924 0 0 1-4.456-9.835 16.173 16.173 0 0 0 1.855-18.778 16.171 16.171 0 0 0-17.19-7.782 5.925 5.925 0 0 1-6.29-8.777" fill="#5AC0E5" mask="url(#b)"/><path d="M75.806 40.706c-5.69 0-10.302-4.612-10.302-10.301 0-5.69 4.613-10.302 10.302-10.302 5.689 0 10.302 4.612 10.302 10.302 0 5.689-4.613 10.3-10.302 10.3M84.8 56.284c2.845-4.927 9.145-6.615 14.072-3.771 4.927 2.845 6.615 9.146 3.77 14.073-2.844 4.927-9.145 6.615-14.071 3.77-4.928-2.844-6.616-9.145-3.771-14.072M66.811 56.284c2.845 4.927 1.156 11.228-3.77 14.072-4.926 2.845-11.227 1.157-14.072-3.77-2.845-4.927-1.157-11.228 3.77-14.073 4.927-2.844 11.228-1.156 14.072 3.77" fill="#1AB6E7" mask="url(#b)"/><path d="M75.806 48.088a16.181 16.181 0 0 1-10.31-3.703c-.23.116-.458.236-.683.36.006.256.016.513.032.771a16.175 16.175 0 0 1 8.36 7.076 16.174 16.174 0 0 1 1.948 10.78c.216.141.433.28.653.413.22-.134.437-.272.653-.414a16.174 16.174 0 0 1 1.948-10.779 16.175 16.175 0 0 1 8.36-7.076c.016-.258.026-.515.032-.772a22.19 22.19 0 0 0-.685-.359 16.179 16.179 0 0 1-10.308 3.703" fill="#27A9E1" mask="url(#b)"/><path d="M75.806 12.357A16.175 16.175 0 0 0 60.47 23.353a5.924 5.924 0 0 1-11.223-3.793A28.014 28.014 0 0 1 75.806.51a28.014 28.014 0 0 1 26.558 19.05 5.924 5.924 0 0 1-11.223 3.793 16.175 16.175 0 0 0-15.335-10.996M109.35 70.458a16.173 16.173 0 0 0-1.854-18.778 5.923 5.923 0 1 1 8.896-7.823 28.014 28.014 0 0 1 3.219 32.524 28.014 28.014 0 0 1-29.777 13.475 5.922 5.922 0 0 1-4.644-6.971 5.923 5.923 0 0 1 6.97-4.645 16.171 16.171 0 0 0 17.19-7.782M42.26 70.459a16.174 16.174 0 0 0 17.19 7.781 5.923 5.923 0 0 1 2.328 11.617A28.014 28.014 0 0 1 32 76.382a28.014 28.014 0 0 1 3.219-32.525 5.923 5.923 0 1 1 8.896 7.822 16.174 16.174 0 0 0-1.855 18.78" fill="#B6D66F" mask="url(#b)"/><path d="M75.805.51a28.016 28.016 0 0 0-18.933 7.351c1.849 3.455 4.876 6.322 8.625 8.198a16.18 16.18 0 0 1 10.308-3.702c3.859 0 7.475 1.364 10.309 3.702 3.75-1.876 6.777-4.743 8.626-8.198A28.017 28.017 0 0 0 75.805.511M119.61 76.381a28.023 28.023 0 0 0 3.101-20.072c-3.917-.127-7.914 1.061-11.414 3.37a16.167 16.167 0 0 1-1.947 10.78 16.18 16.18 0 0 1-8.36 7.075c-.25 4.185.72 8.24 2.787 11.57A28.017 28.017 0 0 0 119.61 76.38M32.001 76.382a28.016 28.016 0 0 0 15.833 12.72c2.068-3.327 3.037-7.383 2.787-11.568a16.178 16.178 0 0 1-8.36-7.075 16.17 16.17 0 0 1-1.947-10.78c-3.501-2.308-7.497-3.497-11.414-3.37a28.02 28.02 0 0 0 3.101 20.073" fill="#8CC63E" mask="url(#b)"/><path d="M11.81 101.412l-6.634 7.357v2.144l6.896 8.331h4.575l-8.404-9.514 7.607-8.318h-4.04zM0 119.244h3.305v-17.832H0v17.832zM17.894 119.244h3.304v-17.832h-3.304z" fill="#1AB6E7" mask="url(#b)"/></g></svg>
