<svg width="200" height="200" viewBox="0 0 200 200" xmlns="http://www.w3.org/2000/svg" xmlns:xlink="http://www.w3.org/1999/xlink"><title>1</title><defs><path id="a" d="M0 .935v14.538h15.416V.934H0z"/><path id="c" d="M13.346 15.412V.718H.152v14.694h13.194z"/><path id="e" d="M0 115.772h115.346V0H0z"/></defs><g transform="translate(42 42)" fill="none" fill-rule="evenodd"><path d="M49.022 46.008l2.498-1.475 2.153 4.975h2.672v9.42l-9.003-9.03 1.68-3.89zM58.069 5.69l.104-.188.105.188S65 15.746 63.709 39.86l-2.413 6.653h-6.242L52.64 39.86C51.347 15.746 58.069 5.69 58.069 5.69zm9.257 40.318l1.68 3.89L60 58.927v-9.42h2.672l2.154-4.975 2.499 1.475zm-49.11 29.74c.26 0 .514.027.76.074.97-3.055 3.82-5.269 7.188-5.269 2.987 0 5.563 1.747 6.785 4.273a6.164 6.164 0 0 1 5.217.345 4.305 4.305 0 0 1 5.475-.43c.218-3.239 2.9-5.8 6.184-5.8 1.14 0 2.204.314 3.122.852a3.126 3.126 0 0 1 3.084-2.643c.26 0 .508.042.75.102l1.392-7.447 1.392 7.447c.242-.06.492-.102.752-.102a3.126 3.126 0 0 1 3.083 2.643 6.152 6.152 0 0 1 3.122-.852c3.284 0 5.965 2.561 6.184 5.8a4.302 4.302 0 0 1 5.475.431 6.164 6.164 0 0 1 5.217-.346c1.224-2.526 3.797-4.273 6.785-4.273 3.367 0 6.217 2.214 7.188 5.27.247-.048.5-.075.758-.075a3.977 3.977 0 0 1 3.97 3.908h7.597L67.523 0h-18.95L6.397 79.656h7.85a3.977 3.977 0 0 1 3.97-3.908z" fill="#ED1C24"/><path d="M58.068 36.198c.035 0 .07 0 .105-.003l.105.003a2.805 2.805 0 0 0 2.758-2.808 2.805 2.805 0 0 0-2.758-2.809l-.105.004a3.683 3.683 0 0 0-.105-.004 2.805 2.805 0 0 0-2.757 2.81 2.804 2.804 0 0 0 2.757 2.807" fill="#ED1C24"/><g transform="translate(0 88.772)"><mask id="b" fill="#fff"><use xlink:href="#a"/></mask><path d="M7.43 3.873L5.706 9.101h3.944L7.985 3.873H7.43zM4.917.935H10.5l4.916 14.538H11.74l-.97-2.96H4.614l-.94 2.96H0L4.916.934z" fill="#ED1C24" mask="url(#b)"/></g><path d="M22.003 95.052h3.972c.813 0 1.324-.243 1.534-.729.091-.185.138-.382.138-.592 0-.934-.558-1.4-1.672-1.4h-3.972v2.721zm-3.618-6.173h8.278c1.495 0 2.655.374 3.481 1.124.957.867 1.435 1.992 1.435 3.372 0 1.381-.537 2.52-1.612 3.413a5.125 5.125 0 0 1 1.263 2.288c.077.303.194 2.025.35 5.168h-3.69l-.137-2.9a21.283 21.283 0 0 0-.295-1.459c-.262-.842-.798-1.342-1.609-1.5a3.628 3.628 0 0 0-.746-.078h-3.1v5.937h-3.618V88.88zM42.434 92.272c-1.586 0-2.786.58-3.598 1.74-.525.737-.787 1.588-.787 2.55 0 .962.272 1.826.816 2.59a3.764 3.764 0 0 0 2.173 1.501c.459.133.924.198 1.396.198 1.6 0 2.805-.58 3.618-1.74a4.344 4.344 0 0 0 .787-2.55c0-.976-.272-1.842-.816-2.6a3.87 3.87 0 0 0-2.193-1.511 5.385 5.385 0 0 0-1.396-.178m0-3.413c2.373 0 4.3.718 5.78 2.153 1.443 1.395 2.164 3.245 2.164 5.55 0 2.303-.721 4.148-2.163 5.53-1.494 1.434-3.421 2.153-5.781 2.153s-4.28-.719-5.761-2.154c-1.443-1.381-2.163-3.225-2.163-5.53 0-2.304.73-4.164 2.192-5.58 1.462-1.414 3.373-2.122 5.732-2.122M57.102 95.763a5.274 5.274 0 0 0-.078.848c0 1.09.197 1.992.59 2.702.695 1.262 1.867 1.894 3.52 1.894h6.135v3.017l-6.195.02c-2.765 0-4.85-.848-6.252-2.544-1.036-1.25-1.553-2.886-1.553-4.912v-.335c0-.223.055-.624.166-1.203a8.631 8.631 0 0 1 .502-1.676c.433-1.092 1.154-1.986 2.163-2.683 1.31-.907 2.97-1.361 4.974-1.361l6.195.02v3.017h-6.136c-.47 0-.93.066-1.376.197-.956.264-1.671.829-2.142 1.697-.276.487-.448.92-.513 1.302M77.611 96.473l6.122 7.155-.006.616h-4.366L73.797 97.4v6.845H70.16V89.55h3.638v6.194l5.093-6.194h4.837zM99.222 89.53v3.294h-9.045v2.367h5.741v3.155h-5.74v2.506h9.084v3.392H86.638V89.53z" fill="#221F20"/><g transform="translate(102 88.772)"><mask id="d" fill="#fff"><use xlink:href="#c"/></mask><path fill="#221F20" mask="url(#d)" d="M13.346.718v3.294H8.627v11.4H4.871v-11.4H.152V.718z"/></g><path d="M2.517 114.842h.36c.293 0 .495-.15.608-.454.04-.103.06-.222.06-.357 0-.32-.062-.554-.183-.7-.11-.135-.27-.202-.485-.202h-.36v1.713zm0-2.542h.36c.268 0 .448-.13.54-.394.033-.097.05-.218.05-.36 0-.24-.058-.42-.174-.542a.546.546 0 0 0-.416-.169h-.36v1.465zm-.932 3.398v-5.743h1.292c.341 0 .65.09.923.27.234.153.402.39.502.71.055.171.082.374.082.61 0 .384-.102.693-.305.925a.892.892 0 0 1-.302.224c.192.073.354.218.49.435.087.147.152.336.195.568a2.3 2.3 0 0 1 .032.398c0 .364-.069.672-.206.926a1.23 1.23 0 0 1-.452.476 1.244 1.244 0 0 1-.652.201H1.585zM8.933 115.763c-.381 0-.703-.133-.968-.399a1.316 1.316 0 0 1-.397-.966v-4.438h.844v4.428c0 .138.049.255.146.351a.485.485 0 0 0 .352.144.475.475 0 0 0 .349-.144.478.478 0 0 0 .144-.35v-4.429h.9v4.438c0 .385-.135.708-.402.971a1.336 1.336 0 0 1-.968.394" fill="#221F20"/><mask id="f" fill="#fff"><use xlink:href="#e"/></mask><path fill="#221F20" mask="url(#f)" d="M13.403 115.699h.863v-5.739h-.863zM19.722 115.699h-2.35v-5.74h.862v4.879h1.488zM23.513 114.842h.52a.46.46 0 0 0 .347-.149.494.494 0 0 0 .142-.35v-3.005a.483.483 0 0 0-.144-.352.465.465 0 0 0-.344-.147h-.521v4.003zm1.849-.518c0 .38-.132.703-.397.971a1.297 1.297 0 0 1-.96.403H22.65v-5.743h1.356c.377 0 .698.135.96.403.264.27.396.591.396.966v3zM32.371 113.294l-1.155-3.338h.95l.64 2.06.633-2.06h.954l-1.159 3.338v2.404h-.863zM38.937 111.243a.48.48 0 0 0-.144-.351.473.473 0 0 0-.349-.144.48.48 0 0 0-.351.144.474.474 0 0 0-.147.35v3.143c0 .137.049.254.147.35a.48.48 0 0 0 .351.144.473.473 0 0 0 .349-.144.477.477 0 0 0 .144-.35v-3.142zm-.47-1.356c.38 0 .704.134.97.403.267.269.4.593.4.97v3.133c0 .383-.134.707-.402.974a1.323 1.323 0 0 1-.968.4 1.31 1.31 0 0 1-.968-.402 1.335 1.335 0 0 1-.397-.972v-3.132c0-.382.134-.706.401-.973.268-.267.59-.401.964-.401zM44.29 115.763c-.382 0-.705-.133-.969-.399a1.316 1.316 0 0 1-.397-.966v-4.438h.844v4.428c0 .138.05.255.146.351a.485.485 0 0 0 .352.144.475.475 0 0 0 .35-.144.478.478 0 0 0 .143-.35v-4.429h.9v4.438c0 .385-.134.708-.402.971a1.336 1.336 0 0 1-.968.394M50.636 111.343c0-.333-.165-.5-.493-.5h-.521v1.837h.52a.466.466 0 0 0 .35-.147.481.481 0 0 0 .144-.352v-.838zm-.516-1.383c.48 0 .834.133 1.059.398.198.232.297.556.297.971v.834c0 .406-.153.75-.461 1.03l.639 2.505h-.933l-.523-2.16h-.576v2.16h-.862v-5.738h1.36zM57.508 115.699h.863v-5.739h-.863zM62.339 115.699h-.863v-5.743h1.239l.804 4.125.772-4.125h1.19v5.743h-.863v-3.61l-.75 3.61h-.693l-.836-3.6zM70.097 111.274l-.319 2.263h.638l-.319-2.263zm-.454 3.105l-.209 1.32h-.899l.973-5.739h1.187l.96 5.738h-.909l-.202-1.319h-.9zM75.95 115.772c-.38 0-.703-.134-.97-.403a1.327 1.327 0 0 1-.4-.967v-3.132c0-.382.135-.706.403-.973s.59-.401.968-.401c.38 0 .703.134.968.403s.397.593.397.971v.655h-.894v-.674a.48.48 0 0 0-.147-.352.476.476 0 0 0-.351-.147.468.468 0 0 0-.35.147.486.486 0 0 0-.144.352v3.142a.48.48 0 0 0 .145.351.473.473 0 0 0 .349.144.48.48 0 0 0 .35-.144.47.47 0 0 0 .148-.349v-1.128h-.48v-.87h1.374v2.005c0 .383-.134.706-.401.972a1.322 1.322 0 0 1-.964.398M80.398 115.699h.863v-5.739h-.863zM85.335 109.956l1.146 3.86v-3.86h.862v5.743h-.926l-1.188-3.678v3.678h-.863v-5.743zM91.96 111.274l-.319 2.263h.639l-.32-2.263zm-.453 3.105l-.21 1.32h-.899l.973-5.739h1.188l.958 5.738h-.907l-.202-1.319h-.901zM96.686 110.83h-.917v-.87h2.693v.87h-.913v4.87h-.863zM101.49 115.699h.863v-5.739h-.863zM107.285 111.243a.48.48 0 0 0-.144-.351.473.473 0 0 0-.35-.144.485.485 0 0 0-.351.144.477.477 0 0 0-.146.35v3.143c0 .137.049.254.146.35a.485.485 0 0 0 .352.144.473.473 0 0 0 .349-.144.477.477 0 0 0 .144-.35v-3.142zm-.47-1.356c.38 0 .704.134.97.403.267.269.399.593.399.97v3.133c0 .383-.133.707-.401.974a1.323 1.323 0 0 1-.968.4 1.31 1.31 0 0 1-.968-.402 1.335 1.335 0 0 1-.397-.972v-3.132c0-.382.133-.706.4-.973.269-.267.59-.401.965-.401zM112.245 109.956l1.145 3.86v-3.86h.863v5.743h-.927l-1.187-3.678v3.678h-.863v-5.743z"/></g></svg>
