<?xml version="1.0" encoding="UTF-8"?>
<svg xmlns="http://www.w3.org/2000/svg" xmlns:xlink="http://www.w3.org/1999/xlink" viewBox="0 0 80 80" width="80px" height="80px">
<g id="surface76368942">
<path style=" stroke:none;fill-rule:nonzero;fill:rgb(100%,100%,100%);fill-opacity:1;" d="M 70.511719 10.988281 C 69.832031 11.015625 69.15625 11.195312 68.539062 11.4375 L 68.535156 11.4375 C 67.929688 11.671875 64.050781 13.28125 58.394531 15.628906 C 52.734375 17.976562 45.382812 21.03125 38.09375 24.066406 C 23.511719 30.128906 9.183594 36.09375 9.183594 36.09375 L 9.246094 36.070312 C 9.246094 36.070312 8.449219 36.332031 7.648438 36.871094 C 7.25 37.140625 6.828125 37.488281 6.496094 37.96875 C 6.164062 38.445312 5.929688 39.105469 6.019531 39.808594 C 6.179688 41.082031 7.046875 41.914062 7.761719 42.414062 C 8.480469 42.910156 9.164062 43.148438 9.164062 43.148438 L 9.171875 43.152344 L 23.1875 47.785156 C 23.417969 48.585938 27.164062 61.632812 28.046875 64.386719 C 28.507812 65.828125 28.9375 66.628906 29.335938 67.132812 C 29.535156 67.382812 29.734375 67.5625 29.933594 67.683594 C 30.015625 67.734375 30.101562 67.773438 30.183594 67.804688 C 30.195312 67.808594 30.210938 67.816406 30.222656 67.824219 C 30.253906 67.832031 30.269531 67.832031 30.304688 67.839844 C 31.621094 68.328125 32.738281 67.476562 32.738281 67.476562 L 32.769531 67.453125 L 42.378906 59 L 56.585938 70.394531 L 56.710938 70.449219 C 58.992188 71.429688 60.875 70.890625 61.972656 70.027344 C 63.066406 69.164062 63.511719 68.03125 63.511719 68.03125 L 63.546875 67.941406 L 73.796875 16.097656 C 74.046875 14.988281 74.070312 14.058594 73.855469 13.257812 C 73.636719 12.457031 73.128906 11.808594 72.5 11.445312 C 71.871094 11.078125 71.191406 10.957031 70.511719 10.988281 Z M 70.566406 13.019531 C 70.964844 13.003906 71.300781 13.058594 71.496094 13.171875 C 71.695312 13.289062 71.824219 13.421875 71.921875 13.785156 C 72.023438 14.144531 72.046875 14.757812 71.84375 15.65625 L 71.839844 15.667969 L 61.628906 67.3125 C 61.617188 67.347656 61.351562 67.964844 60.730469 68.457031 C 60.101562 68.953125 59.25 69.320312 57.578125 68.625 L 34.738281 50.308594 C 34.546875 50.109375 34.277344 49.996094 34 50 C 33.453125 49.992188 33.003906 50.425781 32.988281 50.972656 L 30.382812 64.921875 C 30.25 64.617188 30.109375 64.257812 29.953125 63.773438 C 29.148438 61.261719 25.523438 48.675781 25.164062 47.433594 L 61.011719 24.226562 C 61.121094 24.683594 61.53125 25.003906 62 25 C 62.304688 25.003906 62.597656 24.867188 62.789062 24.628906 C 62.980469 24.394531 63.054688 24.082031 62.988281 23.78125 C 63.015625 23.476562 62.988281 23.175781 62.855469 22.875 C 62.640625 22.394531 62.128906 22.101562 61.765625 22.03125 C 61.039062 21.894531 60.566406 22.15625 60.566406 22.15625 L 60.464844 22.195312 L 23.855469 45.898438 L 9.824219 41.261719 L 9.820312 41.257812 C 9.820312 41.257812 9.378906 41.097656 8.90625 40.769531 C 8.4375 40.441406 8.0625 40.015625 8.003906 39.554688 C 7.984375 39.394531 8.015625 39.289062 8.140625 39.105469 C 8.265625 38.921875 8.5 38.707031 8.765625 38.527344 C 9.300781 38.167969 9.886719 37.960938 9.886719 37.960938 L 9.917969 37.949219 L 9.953125 37.9375 C 9.953125 37.9375 24.277344 31.972656 38.859375 25.910156 C 46.148438 22.878906 53.503906 19.824219 59.160156 17.476562 C 64.816406 15.128906 68.855469 13.457031 69.261719 13.300781 C 69.707031 13.128906 70.167969 13.039062 70.566406 13.019531 Z M 59.199219 25.699219 L 58.398438 26.101562 L 58.238281 26.984375 L 58.855469 27.640625 L 59.199219 27.699219 L 60 27.300781 L 60.160156 26.417969 L 59.546875 25.761719 Z M 56.402344 28.402344 L 55.597656 28.800781 L 55.441406 29.683594 L 56.054688 30.339844 L 56.402344 30.402344 L 57.203125 30 L 57.359375 29.117188 L 56.746094 28.464844 Z M 53.597656 31.097656 L 52.796875 31.503906 L 52.640625 32.382812 L 53.253906 33.039062 L 53.597656 33.101562 L 54.402344 32.699219 L 54.558594 31.816406 L 53.945312 31.164062 Z M 50.800781 33.800781 L 49.996094 34.203125 L 49.839844 35.085938 L 50.453125 35.738281 L 50.800781 35.800781 L 51.601562 35.398438 L 51.761719 34.519531 L 51.144531 33.863281 Z M 48 36.5 L 47.199219 36.902344 L 47.039062 37.785156 L 47.652344 38.4375 L 48 38.5 L 48.800781 38.097656 L 48.960938 37.214844 L 48.347656 36.5625 Z M 45.199219 39.199219 L 44.398438 39.601562 L 44.238281 40.484375 L 44.855469 41.140625 L 45.199219 41.199219 L 46.003906 40.800781 L 46.160156 39.917969 L 45.546875 39.261719 Z M 42.402344 41.902344 L 41.597656 42.300781 L 41.441406 43.183594 L 42.054688 43.839844 L 42.402344 43.902344 L 43.203125 43.496094 L 43.359375 42.617188 L 42.746094 41.960938 Z M 39.597656 44.597656 L 38.796875 45.003906 L 38.640625 45.882812 L 39.253906 46.539062 L 39.597656 46.601562 L 40.398438 46.199219 L 40.558594 45.316406 L 39.945312 44.664062 Z M 36.800781 47.300781 L 35.996094 47.703125 L 35.839844 48.585938 L 36.453125 49.238281 L 36.800781 49.300781 L 37.601562 48.898438 L 37.761719 48.015625 L 37.144531 47.359375 Z M 34.675781 52.824219 L 40.792969 57.730469 L 32.378906 65.132812 Z M 34.675781 52.824219 "/>
</g>
</svg>
