<svg width="76" height="76" viewBox="0 0 76 76" fill="none" xmlns="http://www.w3.org/2000/svg">
<path d="M36.4881 45.3479H6.71972C8.09696 51.1628 11.0656 56.4797 15.2935 60.7037C19.5214 64.9277 24.8416 67.892 30.6587 69.2648V60.867H23.435V54.9886H36.4713V75.9998C26.9563 75.6188 17.9305 71.683 11.1776 64.9705C4.42474 58.258 0.43611 49.2571 0 39.7466H36.4881V45.3479Z" fill="#27244F"/>
<path d="M76.0002 39.7466C75.567 49.2667 71.5725 58.2768 64.8082 64.9913C58.044 71.7058 49.0036 75.6349 39.4785 75.9998V70.1214C46.2406 69.8095 52.7318 67.3719 58.0272 63.1558C63.3225 58.9398 67.1519 53.1604 68.9697 46.6412L57.6805 51.6798L45.1651 46.1205V60.7579H39.4785V39.7634H44.1235L57.6469 45.8434L69.9944 39.7634L76.0002 39.7466Z" fill="#27244F"/>
<path d="M75.9994 36.2365H39.5449V15.242H53.5471V20.8433H45.1475V30.6183H69.3133C67.712 23.8219 63.9409 17.7314 58.5701 13.2679C53.1994 8.80436 46.5211 6.21048 39.5449 5.87845V0C49.0548 0.382981 58.0752 4.31753 64.8246 11.0265C71.5739 17.7355 75.5614 26.7311 75.9994 36.2365Z" fill="#27244F"/>
<path d="M36.5133 0V36.2533H30.8603V6.65105C24.9456 7.99366 19.5337 10.9873 15.2538 15.284H23.3678V20.8685H10.7683C7.84966 25.4759 6.16613 30.7567 5.87975 36.2029H0C0.451004 26.695 4.45155 17.7018 11.2116 10.9992C17.9717 4.29655 26.9998 0.371823 36.5133 0V0Z" fill="#27244F"/>
</svg>
