<svg width="118" height="66" viewBox="0 0 118 66" fill="none" xmlns="http://www.w3.org/2000/svg">
<path d="M4.99953 52.5617H6.46731L10.5727 61.9118H8.64105L7.75225 59.772H3.61301L2.7513 61.9118H0.853516L4.99953 52.5617ZM7.15295 58.3465L5.68686 54.5425L4.192 58.3465H7.15295Z" fill="#494949"/>
<path d="M19.6165 61.4226C19.107 61.6611 18.5719 61.8406 18.0217 61.9576C17.3642 62.0941 16.6938 62.1588 16.0223 62.1505C15.3018 62.1593 14.5857 62.0359 13.9096 61.7866C13.2994 61.5619 12.7409 61.2164 12.2674 60.7708C11.8065 60.3315 11.4421 59.8011 11.1975 59.2133C10.9355 58.5791 10.8048 57.8984 10.8132 57.2122C10.8017 56.5146 10.9373 55.8225 11.211 55.1807C11.4606 54.5959 11.8324 54.0713 12.3013 53.6418C12.7767 53.2112 13.3324 52.8786 13.9366 52.6633C14.5938 52.4313 15.2866 52.3167 15.9834 52.3247C16.694 52.3162 17.401 52.4255 18.0759 52.6481C18.6364 52.8229 19.155 53.111 19.5995 53.4945L18.4297 54.7355C18.1429 54.4403 17.7967 54.2095 17.4139 54.0583C16.9641 53.871 16.4808 53.7771 15.9936 53.7823C15.5251 53.7761 15.0602 53.8654 14.6274 54.0447C14.2329 54.2122 13.8777 54.4601 13.5845 54.7727C13.2936 55.0859 13.0675 55.4536 12.9192 55.8545C12.7577 56.2876 12.6774 56.7467 12.6822 57.2089C12.6772 57.6793 12.7575 58.1468 12.9192 58.5886C13.0687 58.9941 13.2991 59.365 13.5964 59.6789C13.8956 59.9915 14.2581 60.2367 14.6595 60.3984C15.1117 60.5759 15.5942 60.6634 16.0799 60.6557C16.7279 60.6698 17.3725 60.5576 17.9777 60.3256V57.9554H15.9682V56.5774H19.6165V61.4226Z" fill="#494949"/>
<path d="M25.0447 52.5617H27.6958L30.1726 59.2048H30.2132L32.6646 52.5617H35.3293V61.9118H33.6465V54.3969H33.6194L30.7245 61.9118H29.5394L26.6851 54.3969H26.658V61.9118H25.043L25.0447 52.5617Z" fill="#494949"/>
<path d="M43.5144 58.8222V59.0338C43.5141 59.104 43.5096 59.1741 43.5009 59.2438H38.5913C38.6056 59.4638 38.6674 59.6781 38.7725 59.8719C38.8754 60.0604 39.0146 60.2267 39.1822 60.3611C39.3568 60.4989 39.5522 60.608 39.7612 60.6845C39.978 60.7641 40.2073 60.8042 40.4383 60.803C40.7896 60.813 41.138 60.738 41.4541 60.5846C41.7284 60.4427 41.9642 60.2365 42.1414 59.9836L43.2181 60.8301C42.5805 61.6765 41.6561 62.0992 40.4451 62.0981C39.973 62.1035 39.5036 62.0256 39.0586 61.8678C38.6538 61.7235 38.2812 61.5015 37.9616 61.2144C37.647 60.9249 37.3987 60.5709 37.2336 60.1766C37.0525 59.7348 36.9632 59.2607 36.9712 58.7833C36.9652 58.306 37.0544 57.8324 37.2336 57.39C37.3957 56.9879 37.6395 56.6238 37.9496 56.3207C38.2596 56.0177 38.6292 55.7822 39.0349 55.6293C39.467 55.4635 39.9264 55.3802 40.3892 55.3839C40.8144 55.3798 41.2368 55.4538 41.6352 55.6023C42.0082 55.7428 42.3457 55.9635 42.6239 56.249C42.9145 56.5554 43.1366 56.9201 43.2757 57.3189C43.4441 57.8018 43.5249 58.3109 43.5144 58.8222ZM41.8993 58.1078C41.8996 57.9109 41.8699 57.7151 41.8113 57.5271C41.7544 57.3426 41.6574 57.1729 41.5271 57.0304C41.3969 56.8878 41.2366 56.7759 41.058 56.7027C40.8432 56.615 40.6127 56.5723 40.3808 56.5774C39.9319 56.5648 39.494 56.7172 39.15 57.0057C38.986 57.141 38.8517 57.3088 38.7556 57.4984C38.6595 57.6881 38.6036 57.8955 38.5913 58.1078H41.8993Z" fill="#494949"/>
<path d="M45.0723 55.5718H46.6078V56.5875H46.6348C46.8017 56.2447 47.06 55.9547 47.3814 55.7495C47.754 55.5019 48.1937 55.3748 48.641 55.3855C49.014 55.3755 49.3845 55.4502 49.7245 55.6039C50.0103 55.7385 50.2629 55.9345 50.4643 56.1778C50.6589 56.4198 50.8028 56.6985 50.8875 56.9972C50.9777 57.3063 51.0233 57.6267 51.023 57.9487V61.9101H49.4079V58.399C49.4072 58.2047 49.3936 58.0108 49.3673 57.8183C49.3461 57.6264 49.2886 57.4402 49.198 57.2698C49.1096 57.1075 48.9829 56.9691 48.8289 56.8669C48.6405 56.7529 48.4225 56.6975 48.2025 56.7077C47.9675 56.7006 47.7346 56.753 47.5253 56.8601C47.3442 56.9553 47.1855 57.0881 47.0598 57.2495C46.936 57.4145 46.8426 57.6002 46.7838 57.798C46.7219 58.0016 46.6906 58.2133 46.6907 58.4261V61.9118H45.0723V55.5718Z" fill="#494949"/>
<path d="M51.9824 56.8415V55.5718H53.1116V53.7366H54.6996V55.5718H56.3164V56.8415H54.6996V59.7855C54.6909 60.0286 54.7445 60.2698 54.8553 60.4864C54.9586 60.6709 55.1939 60.764 55.5478 60.764C55.6653 60.7629 55.7826 60.7516 55.8982 60.7302C56.0149 60.7118 56.1288 60.6782 56.2368 60.6303L56.291 61.8729C56.1261 61.9309 55.956 61.9728 55.7831 61.9982C55.596 62.0278 55.407 62.043 55.2176 62.0439C54.8587 62.0569 54.501 61.9964 54.1663 61.8661C53.9142 61.7636 53.6927 61.5981 53.523 61.3853C53.3634 61.1749 53.2529 60.9313 53.1996 60.6726C53.1399 60.3881 53.1104 60.0982 53.1116 59.8075V56.8415H51.9824Z" fill="#494949"/>
<path d="M57.1057 58.7156C57.0996 58.2456 57.1943 57.7797 57.3834 57.3494C57.5574 56.9518 57.8115 56.5945 58.13 56.2997C58.4529 56.0009 58.833 55.7706 59.2473 55.6226C60.1349 55.3039 61.1057 55.3039 61.9933 55.6226C62.4072 55.7714 62.7871 56.0016 63.1106 56.2997C63.4291 56.5945 63.6832 56.9518 63.8572 57.3494C64.0457 57.7798 64.1398 58.2457 64.1331 58.7156C64.1395 59.1882 64.0454 59.6567 63.8572 60.0902C63.683 60.4911 63.429 60.8523 63.1106 61.1517C62.7865 61.4531 62.4071 61.6889 61.9933 61.8458C61.1083 62.1793 60.1323 62.1793 59.2473 61.8458C58.8331 61.6897 58.4535 61.4539 58.13 61.1517C57.8116 60.8523 57.5576 60.4911 57.3834 60.0902C57.1946 59.6568 57.1 59.1883 57.1057 58.7156ZM58.7496 58.7156C58.7498 58.9665 58.7881 59.2159 58.863 59.4554C58.934 59.6946 59.0488 59.9184 59.2016 60.1156C59.3712 60.3277 59.5862 60.4989 59.8309 60.6166C60.0756 60.7343 60.3437 60.7954 60.6152 60.7954C60.8867 60.7954 61.1548 60.7343 61.3995 60.6166C61.6442 60.4989 61.8593 60.3277 62.0288 60.1156C62.1817 59.9185 62.2965 59.6946 62.3674 59.4554C62.4437 59.2162 62.4825 58.9666 62.4825 58.7156C62.4827 58.4667 62.4438 58.2194 62.3674 57.9825C62.2953 57.7459 62.1805 57.5244 62.0288 57.329C61.8721 57.1326 61.6745 56.9726 61.4498 56.8601C61.1872 56.7429 60.9028 56.6824 60.6152 56.6824C60.3276 56.6824 60.0432 56.7429 59.7806 56.8601C59.5556 56.9721 59.3579 57.1322 59.2016 57.329C59.0499 57.5244 58.9352 57.7459 58.863 57.9825C58.7885 58.2197 58.7509 58.4669 58.7513 58.7156H58.7496Z" fill="#494949"/>
<path d="M65.6934 55.5718H67.2424V56.6299H67.2695C67.4396 56.2707 67.699 55.9612 68.0228 55.7309C68.3546 55.5015 68.7505 55.383 69.1537 55.3923C69.2164 55.3923 69.2841 55.3923 69.3552 55.3923C69.4191 55.3952 69.4823 55.4066 69.5431 55.4262V56.8787C69.4524 56.8549 69.3602 56.8374 69.2672 56.8262C69.1936 56.8168 69.1195 56.8123 69.0454 56.8127C68.7368 56.7989 68.4301 56.8673 68.1566 57.0108C67.9485 57.1285 67.7693 57.291 67.6318 57.4865C67.5124 57.658 67.4263 57.8504 67.3778 58.0536C67.3385 58.2047 67.3157 58.3597 67.3101 58.5158V61.9101H65.6934V55.5718Z" fill="#494949"/>
<path d="M74.1333 57.263C73.9712 57.063 73.7695 56.8987 73.5407 56.7805C73.2885 56.6449 73.0061 56.575 72.7197 56.5774C72.4731 56.5743 72.2292 56.6282 72.0069 56.7348C71.9058 56.7797 71.8207 56.8542 71.763 56.9485C71.7052 57.0429 71.6775 57.1526 71.6836 57.263C71.6791 57.3766 71.7112 57.4885 71.7753 57.5824C71.8393 57.6763 71.9318 57.7471 72.0391 57.7844C72.3782 57.9165 72.7276 58.0207 73.0837 58.0959C73.3323 58.1507 73.5771 58.2214 73.8167 58.3076C74.0579 58.3909 74.2859 58.5083 74.4939 58.6563C74.6939 58.8003 74.8612 58.9849 74.9848 59.198C75.1161 59.4385 75.181 59.7097 75.1727 59.9836C75.1841 60.325 75.1078 60.6637 74.951 60.9672C74.809 61.2295 74.6057 61.4537 74.3584 61.6207C74.097 61.7957 73.8045 61.9193 73.4967 61.9846C73.1634 62.0599 72.8227 62.0973 72.481 62.0964C71.9794 62.0966 71.482 62.0054 71.0132 61.8272C70.5641 61.6636 70.1586 61.3989 69.8281 61.0535L70.893 60.0767C71.0823 60.314 71.3209 60.5075 71.5922 60.6438C71.8878 60.796 72.2162 60.8733 72.5487 60.869C72.6689 60.8686 72.7887 60.8549 72.9059 60.8284C73.0245 60.8041 73.1387 60.7619 73.2445 60.7031C73.3452 60.6481 73.4307 60.569 73.4933 60.4728C73.5593 60.3656 73.5923 60.2414 73.5881 60.1156C73.5932 59.9942 73.5602 59.8743 73.4937 59.7726C73.4273 59.6709 73.3306 59.5925 73.2174 59.5485C72.859 59.3999 72.4871 59.2866 72.1068 59.2099C71.867 59.1583 71.6311 59.0899 71.4009 59.0051C71.1804 58.9243 70.9737 58.8101 70.788 58.6665C70.6093 58.5302 70.462 58.357 70.3563 58.1586C70.2423 57.9242 70.1871 57.6657 70.1955 57.4052C70.1873 57.0873 70.2639 56.773 70.4173 56.4944C70.5618 56.2429 70.7622 56.0281 71.003 55.8663C71.254 55.6995 71.5317 55.5769 71.8241 55.5041C72.132 55.4239 72.4489 55.3835 72.7671 55.3839C73.2328 55.3839 73.6951 55.4647 74.1333 55.6226C74.5472 55.7595 74.9136 56.0114 75.1897 56.3488L74.1333 57.263Z" fill="#494949"/>
<path d="M88.3618 61.4226C87.8524 61.6611 87.3173 61.8405 86.7671 61.9576C86.1096 62.094 85.4392 62.1587 84.7677 62.1505C84.0471 62.1593 83.3311 62.0359 82.6549 61.7866C82.0445 61.5615 81.4854 61.2161 81.0111 60.7708C80.5512 60.331 80.1875 59.8007 79.9428 59.2133C79.4264 57.9197 79.4307 56.4764 79.9547 55.1858C80.2055 54.6012 80.5777 54.0767 81.0466 53.6469C81.5218 53.2159 82.0776 52.8834 82.682 52.6684C83.3391 52.4362 84.032 52.3216 84.7288 52.3298C85.4394 52.3213 86.1464 52.4305 86.8213 52.6531C87.3818 52.828 87.9004 53.1161 88.3449 53.4996L87.1734 54.7405C86.8871 54.4448 86.5408 54.2139 86.1576 54.0634C85.7077 53.8763 85.2245 53.7824 84.7373 53.7874C84.2687 53.781 83.8039 53.8703 83.3711 54.0498C82.9765 54.2172 82.6213 54.4652 82.3282 54.7778C82.0373 55.091 81.8112 55.4586 81.6629 55.8596C81.5005 56.2924 81.4201 56.7517 81.4259 57.2139C81.4199 57.6845 81.5002 58.1521 81.6629 58.5937C81.8118 58.9995 82.0423 59.3706 82.3401 59.6839C82.6393 59.9965 83.0018 60.2418 83.4032 60.4034C83.8551 60.5796 84.337 60.6659 84.8219 60.6574C85.4699 60.6714 86.1145 60.5593 86.7197 60.3272V57.9571H84.7136V56.5774H88.3618V61.4226Z" fill="#494949"/>
<path d="M90.3438 55.5718H91.8928V56.6299H91.9199C92.09 56.2707 92.3494 55.9612 92.6732 55.7309C93.005 55.5015 93.4009 55.383 93.8041 55.3923C93.8668 55.3923 93.9345 55.3923 94.0056 55.3923C94.0694 55.3952 94.1327 55.4066 94.1935 55.4262V56.8787C94.1034 56.855 94.0117 56.8375 93.9192 56.8262C93.8451 56.8168 93.7705 56.8123 93.6958 56.8127C93.3872 56.7989 93.0805 56.8673 92.807 57.0108C92.5989 57.1285 92.4197 57.291 92.2822 57.4865C92.1628 57.658 92.0767 57.8504 92.0282 58.0536C91.9888 58.2047 91.9661 58.3597 91.9605 58.5158V61.9101H90.3438V55.5718Z" fill="#494949"/>
<path d="M94.6195 58.7156C94.6128 58.2457 94.7069 57.7798 94.8954 57.3494C95.0694 56.9518 95.3236 56.5945 95.642 56.2997C95.9655 56.0016 96.3454 55.7714 96.7594 55.6226C97.6469 55.3039 98.6177 55.3039 99.5053 55.6226C99.9196 55.7706 100.3 56.0009 100.623 56.2997C100.941 56.5945 101.195 56.9518 101.369 57.3494C101.558 57.7797 101.653 58.2456 101.647 58.7156C101.653 59.1883 101.558 59.6568 101.369 60.0902C101.195 60.4911 100.941 60.8523 100.623 61.1517C100.299 61.4539 99.9195 61.6897 99.5053 61.8458C98.6204 62.1793 97.6443 62.1793 96.7594 61.8458C96.3455 61.6889 95.9661 61.4531 95.642 61.1517C95.3236 60.8523 95.0696 60.4911 94.8954 60.0902C94.7072 59.6567 94.6132 59.1882 94.6195 58.7156ZM96.2616 58.7156C96.2616 58.9666 96.3005 59.2162 96.3767 59.4554C96.4476 59.6946 96.5624 59.9185 96.7153 60.1156C96.8727 60.3132 97.07 60.4753 97.2943 60.5913C97.6667 60.786 98.0953 60.845 98.5064 60.7582C98.9175 60.6714 99.2857 60.4442 99.5476 60.1156C99.7005 59.9184 99.8153 59.6946 99.8862 59.4554C99.9611 59.2159 99.9994 58.9665 99.9996 58.7156C99.9995 58.4669 99.9613 58.2196 99.8862 57.9825C99.8141 57.7459 99.6993 57.5244 99.5476 57.329C99.3913 57.1322 99.1936 56.9721 98.9686 56.8601C98.706 56.7429 98.4216 56.6824 98.134 56.6824C97.8464 56.6824 97.562 56.7429 97.2994 56.8601C97.0747 56.9726 96.8771 57.1326 96.7204 57.329C96.5687 57.5244 96.454 57.7459 96.3818 57.9825C96.3037 58.2191 96.2631 58.4664 96.2616 58.7156Z" fill="#494949"/>
<path d="M109.107 61.9118H107.571V60.8961H107.544C107.379 61.2422 107.121 61.5354 106.798 61.7425C106.425 61.9897 105.985 62.1162 105.538 62.1048C105.165 62.1154 104.795 62.0413 104.455 61.8881C104.169 61.7535 103.916 61.5569 103.715 61.3125C103.519 61.0718 103.375 60.7935 103.292 60.4948C103.202 60.1857 103.156 59.8654 103.156 59.5434V55.5718H104.771V59.0863C104.772 59.2806 104.786 59.4745 104.812 59.667C104.833 59.8589 104.891 60.045 104.981 60.2155C105.07 60.3778 105.196 60.5161 105.35 60.6184C105.539 60.7318 105.757 60.7866 105.977 60.7759C106.195 60.78 106.412 60.7334 106.609 60.6397C106.806 60.546 106.979 60.4077 107.114 60.2358C107.238 60.0707 107.33 59.885 107.389 59.6873C107.452 59.4839 107.484 59.2722 107.485 59.0592V55.5718H109.1L109.107 61.9118Z" fill="#494949"/>
<path d="M112.59 55.5718V56.4572H112.629C112.722 56.3215 112.828 56.1956 112.946 56.0814C113.089 55.9467 113.25 55.8327 113.425 55.7428C113.627 55.6357 113.842 55.5517 114.063 55.4922C114.324 55.4231 114.593 55.3895 114.864 55.3923C115.299 55.3879 115.731 55.4756 116.13 55.6497C116.507 55.8153 116.845 56.0561 117.125 56.3573C117.408 56.6634 117.628 57.0224 117.772 57.4137C117.927 57.8319 118.004 58.2748 118.001 58.7206C118.004 59.1681 117.929 59.6127 117.779 60.0344C117.64 60.4292 117.425 60.7928 117.146 61.1043C116.867 61.4123 116.528 61.66 116.15 61.8323C115.733 62.0173 115.28 62.1092 114.823 62.1015C114.388 62.1068 113.958 62.0118 113.565 61.8238C113.208 61.6594 112.903 61.3992 112.685 61.0721H112.658V65.0861H111.041V55.5718H112.59ZM116.359 58.7156C116.358 58.4669 116.32 58.2196 116.245 57.9825C116.172 57.7462 116.058 57.5248 115.907 57.3291C115.75 57.1322 115.553 56.9721 115.328 56.8601C115.071 56.7395 114.79 56.6814 114.506 56.6908C114.23 56.686 113.957 56.7494 113.711 56.8753C113.484 56.9952 113.281 57.1565 113.113 57.3511C112.946 57.5449 112.818 57.7691 112.736 58.0113C112.653 58.2491 112.61 58.4992 112.609 58.7511C112.609 59.0009 112.652 59.2488 112.736 59.4842C112.819 59.7238 112.947 59.9455 113.113 60.1376C113.28 60.3315 113.483 60.4909 113.711 60.6066C113.964 60.7259 114.24 60.7877 114.519 60.7877C114.799 60.7877 115.075 60.7259 115.328 60.6066C115.552 60.491 115.75 60.3288 115.907 60.1309C116.059 59.9333 116.174 59.7095 116.245 59.4706C116.324 59.2266 116.364 58.9719 116.365 58.7156H116.359Z" fill="#494949"/>
<path d="M58.5178 27.3573H40.5555C41.3864 30.8639 43.1773 34.0699 45.7277 36.616C48.278 39.162 51.4869 40.9476 54.9949 41.7727V36.7135H50.6336V33.1879H58.5085V45.8144C46.6093 45.3491 37.0472 35.8298 36.5098 23.9601H58.5178V27.3573Z" fill="#494949"/>
<path d="M82.3478 23.9601C82.0835 29.701 79.6726 35.1333 75.5926 39.1809C71.5126 43.2284 66.0613 45.5959 60.3184 45.8144V42.2633C64.3956 42.0778 68.3103 40.6102 71.5046 38.0696C74.6989 35.529 77.0099 32.045 78.1082 28.1141L71.2977 31.1597H71.287L63.7504 27.8092V36.6333H60.3291V23.9601H63.1367L71.2923 27.6234L78.7433 23.9601H82.3478Z" fill="#494949"/>
<path d="M82.3459 21.8436H60.3633V9.18774H68.8103V12.5676H63.7432V18.4597H78.3163C77.3475 14.3633 75.0718 10.6934 71.8329 8.00472C68.5941 5.31603 64.568 3.7546 60.3633 3.55637V1.90735e-06C72.2464 0.47062 81.8085 9.98459 82.3459 21.8436Z" fill="#494949"/>
<path d="M58.5339 1.90735e-06V21.8543H55.1232V4.01095C51.5562 4.81912 48.2918 6.62308 45.7095 9.21315H50.6042V12.5797H43.0195C41.2626 15.3577 40.2497 18.541 40.0782 21.8236H36.5098C37.0619 9.95918 46.6401 0.454576 58.5339 1.90735e-06Z" fill="#494949"/>
</svg>
