<svg width="200" height="200" viewBox="0 0 200 200" xmlns="http://www.w3.org/2000/svg"><title>5</title><g fill="none" fill-rule="evenodd"><path d="M35 147.246V133.24h1.649l.435 1.787c1.416-1.191 2.973-1.787 4.671-1.787 3.456 0 5.184 1.739 5.184 5.216v8.79h-2.44v-8.83c0-2.081-1.025-3.122-3.074-3.122-1.399 0-2.727.592-3.985 1.774v10.178H35zM54.03 138.895h7.493c-.054-2.454-1.24-3.682-3.562-3.682-2.463 0-3.774 1.228-3.932 3.682m3.932-5.655c3.94 0 5.91 1.969 5.91 5.909 0 .56-.04 1.16-.119 1.801H54.03c0 2.863 1.653 4.295 4.96 4.295 1.575 0 2.973-.178 4.196-.534v2.001c-1.223.356-2.709.534-4.46.534-4.758 0-7.136-2.388-7.136-7.164 0-4.561 2.124-6.842 6.372-6.842M68.507 130.972h1.53l.528 2.268h3.746v2.001h-3.364v8.043c0 1.307.56 1.96 1.676 1.96h1.688v2.001H71.99c-2.32 0-3.482-1.257-3.482-3.774v-12.499z" fill="#19ABE1"/><path d="M87.207 136.895c-.722-.48-1.627-.721-2.718-.721-2.173 0-3.26 1.233-3.26 3.696 0 2.925 1.13 4.387 3.392 4.387.915 0 1.776-.128 2.586-.386v-6.976zm3.496 9.51c-2.12.56-4.191.841-6.214.841-4.477 0-6.715-2.428-6.715-7.284 0-4.481 2.19-6.722 6.57-6.722.932 0 1.886.222 2.863.667v-5.737h3.496v18.235zM98.188 139.029h5.911v-.106c0-1.94-.968-2.91-2.903-2.91-1.847 0-2.85 1.006-3.008 3.016m3.008-5.79c4.203 0 6.306 2.17 6.306 6.51 0 .579-.04 1.157-.119 1.734h-9.195c0 1.975 1.434 2.962 4.301 2.962a22.43 22.43 0 0 0 4.196-.4v2.8c-1.224.267-2.71.4-4.46.4-5.022 0-7.533-2.387-7.533-7.162 0-4.562 2.168-6.843 6.504-6.843M111.478 146.579v-2.935c1.54.623 3.316.934 5.33.934 1.504 0 2.255-.488 2.255-1.467 0-.933-.505-1.401-1.517-1.401h-2.506c-2.815 0-4.222-1.401-4.222-4.201 0-2.935 2.055-4.403 6.162-4.403 1.74 0 3.382.268 4.92.8v2.936c-1.538-.622-3.21-.934-5.013-.934-1.89 0-2.837.489-2.837 1.467 0 .933.55 1.4 1.65 1.4h2.242c3.079 0 4.619 1.402 4.619 4.202 0 2.935-1.963 4.403-5.885 4.403-1.927 0-3.659-.268-5.198-.801M126.352 147.246h3.496V133.24h-3.496v14.006zm0-16.274h3.496v-2.802h-3.496v2.802zM143.362 136.415c-.57-.214-1.385-.32-2.44-.32-2.419 0-3.628 1.346-3.628 4.041 0 2.605 1.042 3.908 3.127 3.908 1.002 0 1.983-.24 2.941-.72v-6.91zm3.497 9.764c0 4.09-2.433 6.135-7.296 6.135-1.707 0-3.22-.222-4.538-.667v-2.8c1.345.443 2.867.666 4.565.666 2.515 0 3.772-1.068 3.772-3.202a8.393 8.393 0 0 1-3.35.667c-4.116 0-6.175-2.272-6.175-6.816 0-4.615 2.397-6.923 7.191-6.923 1.61 0 3.552.192 5.831.573v12.366zM151.508 147.246V133.24h2.704l.436 2.054c1.328-1.37 2.84-2.054 4.538-2.054 3.28 0 4.92 1.726 4.92 5.176v8.83h-3.495v-8.83c0-1.548-.761-2.321-2.282-2.321-1.135 0-2.243.458-3.325 1.374v9.777h-3.496z" fill="#1D3C51"/><path d="M54.178 161.543c-.313 0-.605-.058-.875-.17a1.981 1.981 0 0 1-.702-.498 2.345 2.345 0 0 1-.47-.806 3.2 3.2 0 0 1-.173-1.096c0-.412.062-.78.186-1.098a2.43 2.43 0 0 1 .496-.807c.205-.218.445-.382.716-.494.272-.11.555-.167.85-.167a3.3 3.3 0 0 1 .5.035 2.822 2.822 0 0 1 .68.196c.08.035.141.067.183.095l-.154.42a2.813 2.813 0 0 0-.446-.21 1.916 1.916 0 0 0-.67-.102c-.306 0-.572.053-.799.156a1.575 1.575 0 0 0-.572.44 1.909 1.909 0 0 0-.348.675c-.077.26-.116.55-.116.868 0 .326.04.62.116.883.077.263.191.487.341.67.15.186.334.328.551.428.218.098.467.148.748.148.31 0 .568-.03.777-.088.208-.06.366-.12.474-.18l.133.41a.841.841 0 0 1-.168.083 3.157 3.157 0 0 1-.724.178 4.099 4.099 0 0 1-.534.032M58.892 156.89c-.178 0-.333.007-.467.02a11.27 11.27 0 0 0-.334.031v2.095h.66c.221 0 .43-.01.626-.033.196-.02.367-.068.513-.14a.848.848 0 0 0 .344-.318c.084-.136.126-.324.126-.56 0-.219-.042-.399-.126-.54a.972.972 0 0 0-.33-.338 1.32 1.32 0 0 0-.468-.17 3.12 3.12 0 0 0-.544-.047m1.967 1.102c0 .37-.096.66-.288.873a1.631 1.631 0 0 1-.759.462 12.458 12.458 0 0 1 1.033 1.513 5.9 5.9 0 0 1 .31.596h-.513a10.45 10.45 0 0 0-.32-.568c-.116-.19-.232-.374-.352-.55a12.396 12.396 0 0 0-.347-.494l-.295-.398c-.15.014-.3.022-.45.022h-.787v1.988h-.477v-4.83c.168-.047.366-.08.593-.103a6.88 6.88 0 0 1 .63-.032c.67 0 1.173.128 1.513.384.34.256.51.635.51 1.137M63.135 161.436v-4.922h2.81v.419h-2.332v1.712h2.08v.411h-2.08v1.961h2.514v.419zM69.939 157.068a46.895 46.895 0 0 0-1.033 2.607h2.078a48.272 48.272 0 0 0-1.045-2.607zm1.675 4.368a26.486 26.486 0 0 1-.256-.697 58.207 58.207 0 0 1-.224-.652h-2.378c-.081.212-.161.43-.238.654-.078.223-.161.455-.247.695h-.5c.186-.512.36-.99.525-1.432a50.208 50.208 0 0 1 .955-2.394c.155-.364.319-.73.49-1.096h.422c.172.365.335.729.489 1.094.154.365.31.744.469 1.14.159.394.319.813.483 1.256.162.443.342.92.538 1.432h-.528zM76.742 156.514v.42h-1.56v4.502h-.477v-4.503h-1.56v-.419zM78.681 161.436h.478v-4.922h-.478zM81.575 156.514c.14.422.276.82.408 1.196.132.377.261.741.388 1.093.127.354.255.7.385 1.038.13.34.272.681.424 1.027.145-.34.284-.679.416-1.019a54.036 54.036 0 0 0 .783-2.133c.13-.378.265-.779.406-1.202h.506a86.028 86.028 0 0 1-1.06 2.907 41.55 41.55 0 0 1-.837 2.015h-.448c-.142-.328-.282-.65-.417-.972a39.608 39.608 0 0 1-.429-1.046 59.476 59.476 0 0 1-.48-1.27c-.17-.469-.364-1.013-.579-1.634h.534zM87.167 161.436v-4.922h2.81v.419h-2.332v1.712h2.079v.411h-2.079v1.961h2.514v.419zM97.849 157.118a36.007 36.007 0 0 0 1.34 3.77c.162-.557.324-1.215.488-1.972.163-.758.32-1.558.472-2.402h.47c-.086.508-.172.983-.258 1.425a29.396 29.396 0 0 1-.567 2.415c-.104.368-.217.728-.34 1.082h-.513l-.331-.81a34.823 34.823 0 0 1-.98-2.727 37.678 37.678 0 0 1-.982 2.73c-.11.27-.223.54-.338.807h-.503a18.238 18.238 0 0 1-.35-1.083 22.122 22.122 0 0 1-.295-1.151c-.092-.4-.18-.821-.262-1.264a84.937 84.937 0 0 1-.252-1.424h.493c.072.417.145.825.219 1.225a32.656 32.656 0 0 0 .488 2.224c.085.334.17.642.258.926.2-.524.415-1.093.646-1.707.23-.612.458-1.3.682-2.064h.415zM102.678 161.436v-4.922h2.81v.419h-2.332v1.712h2.079v.411h-2.08v1.961h2.516v.419zM108.234 159.07v1.947a6.199 6.199 0 0 0 .745.05c.215 0 .424-.015.63-.043a1.76 1.76 0 0 0 .536-.156.976.976 0 0 0 .372-.314.866.866 0 0 0 .14-.513c0-.191-.032-.348-.098-.474a.75.75 0 0 0-.28-.3 1.24 1.24 0 0 0-.447-.153 3.736 3.736 0 0 0-.586-.043h-1.012zm0-.411h.927c.174 0 .338-.013.492-.04a1.15 1.15 0 0 0 .404-.14.747.747 0 0 0 .271-.276.894.894 0 0 0 .098-.443.748.748 0 0 0-.105-.406.806.806 0 0 0-.299-.272 1.499 1.499 0 0 0-.46-.153 3.56 3.56 0 0 0-.59-.046c-.174 0-.32.005-.439.015-.12.01-.219.022-.299.035v1.726zm.688 2.82a6.318 6.318 0 0 1-.913-.082 2.345 2.345 0 0 1-.253-.053v-4.738c.084-.022.178-.043.282-.06a5.323 5.323 0 0 1 .934-.076c.262 0 .512.023.748.066.236.042.443.113.621.212.178.099.32.23.426.394a1.1 1.1 0 0 1 .157.607c0 .264-.066.49-.199.676a1.025 1.025 0 0 1-.538.387c.141.033.27.08.386.143a1.014 1.014 0 0 1 .516.594c.05.139.074.306.074.5 0 .465-.182.82-.548 1.064-.365.244-.929.366-1.693.366zM117.191 161.123c.38 0 .674-.069.885-.21.211-.14.316-.366.316-.68a.916.916 0 0 0-.102-.452.962.962 0 0 0-.27-.305 1.748 1.748 0 0 0-.387-.213c-.145-.06-.297-.12-.457-.188a5.331 5.331 0 0 1-.54-.247 1.906 1.906 0 0 1-.408-.287 1.09 1.09 0 0 1-.256-.365 1.24 1.24 0 0 1-.088-.483c0-.422.14-.74.415-.96.276-.217.66-.326 1.152-.326.13 0 .26.01.386.03a2.778 2.778 0 0 1 .657.176c.091.038.167.078.228.12l-.169.406c-.135-.095-.3-.17-.495-.228a2.224 2.224 0 0 0-1.054-.038.952.952 0 0 0-.334.149.743.743 0 0 0-.22.259.816.816 0 0 0-.08.377c0 .152.027.279.083.384a.823.823 0 0 0 .235.269c.101.077.22.145.355.207.136.06.283.125.443.19.191.082.373.162.544.243.171.08.32.175.446.284.127.109.228.242.302.398.075.156.113.347.113.575 0 .445-.154.779-.46 1.002-.307.222-.723.334-1.247.334-.188 0-.359-.013-.514-.036a3.456 3.456 0 0 1-.414-.09 2.291 2.291 0 0 1-.505-.208l.154-.42a2.264 2.264 0 0 0 .471.209c.107.036.23.066.365.09.136.023.285.035.45.035M124.047 156.514v.42h-1.56v4.502h-.477v-4.503h-1.56v-.419zM127.742 161.543c-.323 0-.598-.05-.825-.149a1.429 1.429 0 0 1-.551-.413 1.634 1.634 0 0 1-.306-.614 2.907 2.907 0 0 1-.095-.757v-3.096h.478v3.033c0 .27.03.504.094.7.064.197.152.359.264.486.113.128.248.223.408.285.158.06.337.092.533.092.197 0 .375-.031.534-.092.159-.062.296-.157.408-.285.112-.127.2-.29.263-.486.064-.196.095-.43.095-.7v-3.032h.477v3.096c0 .27-.031.522-.094.757s-.165.44-.306.614c-.14.175-.324.313-.551.413a2.08 2.08 0 0 1-.826.148M132.42 161.01c.029.005.1.014.215.028.115.014.299.021.552.021.35 0 .657-.048.92-.145.262-.097.482-.236.66-.416a1.7 1.7 0 0 0 .4-.657c.089-.258.134-.548.134-.869 0-.322-.045-.61-.133-.867a1.718 1.718 0 0 0-.401-.654 1.81 1.81 0 0 0-.66-.416 2.676 2.676 0 0 0-.92-.145c-.253 0-.437.008-.552.021a6.955 6.955 0 0 0-.214.03v4.07zm3.387-2.038c0 .421-.066.788-.197 1.101a2.116 2.116 0 0 1-.551.781 2.34 2.34 0 0 1-.846.468 3.573 3.573 0 0 1-1.083.157c-.196 0-.402-.01-.618-.032a3.794 3.794 0 0 1-.57-.096v-4.745c.165-.047.355-.08.57-.103.216-.02.422-.032.618-.032.394 0 .754.053 1.083.156.327.105.609.261.846.47.236.208.42.468.55.78.132.313.198.678.198 1.095zM138.055 161.436h.478v-4.922h-.478zM144.84 158.972c0-.332-.042-.629-.126-.892a1.974 1.974 0 0 0-.358-.67 1.52 1.52 0 0 0-.559-.423 1.769 1.769 0 0 0-.734-.147c-.272 0-.516.05-.734.147a1.501 1.501 0 0 0-.558.422 1.958 1.958 0 0 0-.359.671c-.084.263-.127.56-.127.892 0 .331.043.628.127.891.084.262.204.486.36.671.152.184.34.327.557.426.218.1.462.15.734.15.272 0 .516-.05.734-.15.218-.099.404-.242.56-.426.153-.185.273-.409.357-.67.084-.264.126-.56.126-.892m.506 0c0 .421-.06.792-.182 1.114a2.32 2.32 0 0 1-.496.807 2.035 2.035 0 0 1-.727.486 2.35 2.35 0 0 1-.878.164 2.35 2.35 0 0 1-.878-.164 2.026 2.026 0 0 1-.727-.486 2.318 2.318 0 0 1-.495-.807 3.11 3.11 0 0 1-.183-1.114c0-.422.06-.793.183-1.112.122-.32.286-.587.495-.803a2.04 2.04 0 0 1 .727-.486 2.35 2.35 0 0 1 .878-.163c.31 0 .602.053.878.163.276.11.52.271.727.486.21.216.374.483.496.803.121.32.182.69.182 1.112M148.641 161.123c.38 0 .674-.069.885-.21.211-.14.316-.366.316-.68a.916.916 0 0 0-.102-.452.962.962 0 0 0-.27-.305 1.748 1.748 0 0 0-.387-.213c-.145-.06-.297-.12-.457-.188a5.331 5.331 0 0 1-.54-.247 1.874 1.874 0 0 1-.407-.287 1.079 1.079 0 0 1-.257-.365 1.24 1.24 0 0 1-.088-.483c0-.422.14-.74.415-.96.276-.217.66-.326 1.152-.326.131 0 .26.01.386.03a2.742 2.742 0 0 1 .657.176c.091.038.167.078.228.12l-.168.406a1.717 1.717 0 0 0-.495-.228 2.236 2.236 0 0 0-1.054-.038.936.936 0 0 0-.334.149.736.736 0 0 0-.302.636c0 .152.028.279.084.384a.814.814 0 0 0 .236.269c.1.077.22.145.354.207.136.06.283.125.443.19.191.082.373.162.544.243.171.08.32.175.446.284.127.109.228.242.302.398.075.156.113.347.113.575 0 .445-.154.779-.46 1.002-.307.222-.723.334-1.247.334-.188 0-.359-.013-.513-.036a3.475 3.475 0 0 1-.415-.09 2.291 2.291 0 0 1-.505-.208l.154-.42a2.264 2.264 0 0 0 .471.209c.107.036.23.066.365.09.136.023.285.035.45.035" fill="#A6A9AB"/><path d="M88.735 39c13.39 0 24.244 10.853 24.244 24.244H88.635V38.998h.1z" fill="#8CC641"/><path d="M82.875 87.488v24.243h-.101c-13.389 0-24.243-10.853-24.243-24.243h24.344z" fill="#19ABE1"/><path fill="#0D7EC1" d="M58.531 87.488h24.344V63.244H58.531z"/><path d="M82.875 39v24.244H58.531c0-13.39 10.855-24.245 24.244-24.245h.1z" fill="#1D3C51"/><path d="M112.978 87.488v24.243h-.1c-13.39 0-24.243-10.853-24.243-24.243h24.343z" fill="#FCDF00"/><path fill="#38B449" d="M88.636 87.488h24.343V63.244H88.636z"/><path d="M143.28 87.488c0 13.39-10.854 24.243-24.243 24.243h-.1V87.488h24.343z" fill="#FBAE1B"/><path fill="#F05926" d="M118.937 87.488h24.343V63.244h-24.343z"/><path d="M119.036 39c13.389 0 24.244 10.853 24.244 24.244h-24.343V38.998h.099z" fill="#E52028"/></g></svg>
