<svg width="200" height="200" viewBox="0 0 200 200" xmlns="http://www.w3.org/2000/svg" xmlns:xlink="http://www.w3.org/1999/xlink"><title>2</title><defs><path id="a" d="M.767 4h3.238V.341H.767V4z"/><path id="c" d="M.442 4H3.68V.341H.442z"/><path id="e" d="M88.9.082H.165v88.735H88.9V.082z"/></defs><g fill="none" fill-rule="evenodd"><path d="M50.831 146.38l-1.894-6.89-1.985 6.89h3.88zm-3.65-10.36a12.11 12.11 0 0 1 2.761-.102c.288.023.607.057.957.102l5.135 16.407c-.624.091-1.233.137-1.826.137-.578 0-1.14-.046-1.689-.137l-.912-3.286h-5.43l-.936 3.286a9.623 9.623 0 0 1-3.24 0l5.18-16.407zM60.871 144.829a9.76 9.76 0 0 1-1.392-.65 4.113 4.113 0 0 1-1.05-.845 3.483 3.483 0 0 1-.673-1.175c-.159-.456-.239-1.003-.239-1.642 0-.776.133-1.461.4-2.054a4.076 4.076 0 0 1 1.128-1.495c.487-.403 1.073-.707 1.758-.912.684-.206 1.452-.31 2.304-.31.776 0 1.502.07 2.18.207.676.137 1.388.334 2.133.593a8.142 8.142 0 0 1-.73 2.6l-.696-.273a5.52 5.52 0 0 0-.753-.228 8.206 8.206 0 0 0-.902-.148 10.205 10.205 0 0 0-1.14-.057c-.26 0-.522.023-.788.068-.266.046-.506.13-.719.25a1.434 1.434 0 0 0-.525.538c-.136.236-.205.544-.205.924 0 .304.054.559.16.764.106.205.251.38.434.525.182.145.388.266.616.365.228.1.456.194.684.285l1.37.525c.577.228 1.102.464 1.574.708.471.243.87.543 1.197.9.328.359.582.792.765 1.302.183.509.274 1.137.274 1.882 0 .776-.14 1.483-.422 2.123a4.572 4.572 0 0 1-1.22 1.642c-.534.457-1.19.814-1.975 1.073-.783.258-1.685.388-2.704.388-.502 0-.95-.016-1.346-.046-.396-.031-.772-.08-1.13-.148a10.596 10.596 0 0 1-1.06-.262c-.35-.107-.716-.236-1.096-.39.046-.44.13-.9.251-1.38.121-.48.266-.961.433-1.448.64.259 1.24.453 1.803.582a8.057 8.057 0 0 0 1.803.194c.958 0 1.711-.18 2.26-.537.547-.356.821-.901.821-1.631 0-.365-.065-.67-.194-.913a2.014 2.014 0 0 0-.502-.616 3.053 3.053 0 0 0-.697-.422 19.752 19.752 0 0 0-.798-.331l-1.392-.525zM70.432 136.02a10.427 10.427 0 0 1 1.666-.137c.547 0 1.11.046 1.688.137v16.407c-.578.092-1.133.138-1.665.138a10.56 10.56 0 0 1-1.69-.137V136.02zM84.442 146.38l-1.894-6.89-1.985 6.89h3.88zm-3.65-10.36a12.11 12.11 0 0 1 2.761-.102c.288.023.607.057.957.102l5.135 16.407c-.624.091-1.233.137-1.826.137-.578 0-1.14-.046-1.689-.137l-.912-3.286h-5.43l-.937 3.286a9.601 9.601 0 0 1-3.24 0l5.18-16.407zM99.844 144.395c.183.03.354.045.514.045h.581c.381 0 .754-.049 1.118-.148.366-.099.69-.262.971-.49.281-.229.505-.529.673-.902.167-.373.25-.833.25-1.38 0-.563-.083-1.039-.25-1.427a2.49 2.49 0 0 0-.673-.935 2.515 2.515 0 0 0-.97-.502 4.243 4.243 0 0 0-1.119-.149 8.46 8.46 0 0 0-1.095.07v5.818zm-3.332-8.443c.7-.06 1.408-.11 2.123-.149a41.954 41.954 0 0 1 2.168-.056c.76 0 1.532.076 2.316.228a5.792 5.792 0 0 1 2.121.856c.632.419 1.146 1 1.541 1.746.396.746.593 1.712.593 2.898 0 1.187-.197 2.149-.593 2.886-.395.739-.905 1.32-1.529 1.746a5.584 5.584 0 0 1-2.088.867 11.675 11.675 0 0 1-3.32.183v5.27c-.289.047-.57.077-.844.092a14.625 14.625 0 0 1-1.597 0 9.156 9.156 0 0 1-.89-.091v-16.475zM116.502 149.918c2.358 0 3.537-1.886 3.537-5.66 0-1.885-.285-3.3-.856-4.244-.57-.942-1.457-1.414-2.658-1.414-2.389 0-3.583 1.886-3.583 5.659 0 3.773 1.187 5.659 3.56 5.659m0 2.784c-1.232 0-2.297-.213-3.194-.64a5.965 5.965 0 0 1-2.214-1.769c-.578-.752-1.008-1.643-1.289-2.669-.282-1.026-.422-2.148-.422-3.365s.14-2.346.422-3.39c.281-1.04.711-1.942 1.289-2.703a5.933 5.933 0 0 1 2.214-1.78c.897-.425 1.962-.638 3.194-.638s2.297.213 3.195.638a5.938 5.938 0 0 1 2.213 1.78c.578.76 1.008 1.662 1.289 2.703.282 1.043.423 2.172.423 3.39 0 1.216-.141 2.338-.423 3.365-.281 1.026-.711 1.917-1.289 2.67a5.97 5.97 0 0 1-2.213 1.768c-.898.426-1.963.64-3.195.64M126.383 136.02a10.418 10.418 0 0 1 1.666-.137c.547 0 1.11.046 1.688.137v16.407c-.578.092-1.133.138-1.666.138-.563 0-1.126-.046-1.688-.137V136.02zM132.931 136.02c.472-.09.92-.137 1.347-.137.456 0 .927.046 1.414.137l6.344 10.451v-10.45a9.601 9.601 0 0 1 1.574-.138c.471 0 .928.046 1.37.137v16.407a7.251 7.251 0 0 1-1.324.137c-.426 0-.89-.046-1.392-.137L135.874 142v10.428a8.046 8.046 0 0 1-1.483.137 7.69 7.69 0 0 1-1.46-.137V136.02zM151.37 138.85h-4.085a7.27 7.27 0 0 1 0-2.83h11.522a7.27 7.27 0 0 1 0 2.83h-4.084v13.578c-.274.03-.547.057-.82.08-.275.023-.54.034-.8.034-.259 0-.536-.008-.833-.023a9.075 9.075 0 0 1-.9-.091V138.85z" fill="#404041"/><path fill="#939597" d="M61.543 157.706h-1.078v-.389h2.623v.39h-1.083v3.153h-.462zM64.607 157.317v1.482h1.714v-1.482h.462v3.543h-.462v-1.661h-1.714v1.66h-.457v-3.542zM70.08 159.199h-1.378v1.278h1.535v.383h-1.992v-3.543h1.913v.384h-1.456v1.12h1.377zM73.737 160.513c.09.016.221.021.384.021.473 0 .91-.173.91-.689 0-.483-.416-.683-.915-.683h-.379v1.351zm0-1.698h.416c.483 0 .767-.252.767-.594 0-.415-.315-.578-.778-.578-.21 0-.33.016-.405.032v1.14zm-.457-1.45c.2-.043.515-.075.836-.075.457 0 .751.08.972.258.184.137.295.347.295.626 0 .341-.227.641-.6.777v.011c.337.085.731.363.731.888a.952.952 0 0 1-.3.71c-.247.226-.646.331-1.225.331-.315 0-.557-.02-.709-.042v-3.484zM78.631 159.199h-1.377v1.278h1.535v.383h-1.992v-3.543h1.913v.384h-1.456v1.12h1.377zM79.987 160.303c.205.126.505.23.82.23.468 0 .742-.246.742-.603 0-.331-.19-.521-.668-.705-.579-.204-.936-.504-.936-1.004 0-.551.458-.961 1.146-.961.363 0 .625.084.783.173l-.126.373a1.41 1.41 0 0 0-.673-.168c-.484 0-.668.289-.668.53 0 .332.216.495.705.684.6.232.904.52.904 1.04 0 .548-.404 1.02-1.24 1.02-.342 0-.715-.1-.904-.225l.115-.384zM83.982 157.706h-1.078v-.389h2.623v.39h-1.083v3.153h-.462zM90.847 160.744c-.168.084-.505.168-.936.168-.999 0-1.75-.63-1.75-1.792 0-1.109.751-1.86 1.85-1.86.441 0 .72.094.841.157l-.11.373a1.671 1.671 0 0 0-.715-.147c-.83 0-1.383.531-1.383 1.461 0 .868.5 1.425 1.362 1.425.28 0 .562-.058.746-.148l.095.363z"/><g transform="translate(91 156.918)"><mask id="b" fill="#fff"><use xlink:href="#a"/></mask><path d="M1.256 2.191c0 .757.41 1.435 1.13 1.435.725 0 1.136-.667 1.136-1.472 0-.704-.37-1.44-1.131-1.44-.757 0-1.135.7-1.135 1.477m2.749-.058C4.005 3.353 3.264 4 2.36 4 1.424 4 .767 3.274.767 2.202c0-1.125.699-1.86 1.645-1.86.968 0 1.593.74 1.593 1.791" fill="#939597" mask="url(#b)"/></g><path d="M99.252 159.304c-.026-.494-.058-1.088-.052-1.53h-.016c-.121.415-.268.857-.447 1.346l-.626 1.72h-.346l-.574-1.688c-.168-.5-.31-.957-.409-1.378h-.011a47.81 47.81 0 0 1-.068 1.567l-.095 1.52h-.436l.247-3.544h.583l.605 1.714c.147.436.268.825.357 1.193h.016c.089-.358.215-.747.373-1.193l.631-1.714h.584l.221 3.543h-.448l-.089-1.556zM101.617 159.067c.1.026.226.037.38.037.551 0 .887-.268.887-.757 0-.468-.33-.694-.836-.694-.2 0-.352.016-.43.037v1.377zm-.457-1.708c.221-.037.51-.069.877-.069.453 0 .784.106.994.295.194.168.311.426.311.741 0 .321-.096.573-.274.757-.242.257-.636.39-1.083.39a1.59 1.59 0 0 1-.368-.032v1.418h-.457v-3.5zM105.917 159.388l-.347-1.02c-.078-.23-.132-.44-.184-.647h-.01c-.053.211-.11.427-.179.642l-.347 1.025h1.067zm-1.162.357l-.368 1.115h-.473l1.204-3.543h.552l1.21 3.543h-.49l-.379-1.115h-1.256zM108.067 160.86v-3.543h.5l1.135 1.793c.263.415.468.788.636 1.15l.01-.004a15.44 15.44 0 0 1-.052-1.457v-1.482h.43v3.543h-.461l-1.125-1.798a11.357 11.357 0 0 1-.663-1.182l-.015.005c.026.447.036.872.036 1.46v1.515h-.431zM112.945 160.86v-1.503l-1.12-2.04h.52l.5.978c.137.268.242.483.352.73h.01c.1-.23.222-.462.358-.73l.51-.978h.52l-1.187 2.035v1.508h-.463zM117.387 160.303c.205.126.504.23.82.23.468 0 .74-.246.74-.603 0-.331-.188-.521-.666-.705-.58-.204-.936-.504-.936-1.004 0-.551.457-.961 1.146-.961.362 0 .625.084.783.173l-.126.373a1.413 1.413 0 0 0-.673-.168c-.484 0-.668.289-.668.53 0 .332.216.495.705.684.599.232.904.52.904 1.04 0 .548-.405 1.02-1.24 1.02-.342 0-.716-.1-.905-.225l.116-.384zM120.709 157.317h.456v3.16h1.514v.383h-1.97z" fill="#939597"/><g transform="translate(123 156.918)"><mask id="d" fill="#fff"><use xlink:href="#c"/></mask><path d="M.931 2.191c0 .757.41 1.435 1.13 1.435.725 0 1.135-.667 1.135-1.472 0-.704-.368-1.44-1.13-1.44-.757 0-1.135.7-1.135 1.477m2.75-.058C3.68 3.353 2.937 4 2.034 4 1.1 4 .442 3.274.442 2.202c0-1.125.7-1.86 1.645-1.86.968 0 1.593.74 1.593 1.791" fill="#939597" mask="url(#d)"/></g><path d="M130.638 160.703a3.32 3.32 0 0 1-1.088.194c-.536 0-.978-.136-1.325-.467-.305-.295-.494-.768-.494-1.32.006-1.057.731-1.83 1.92-1.83.41 0 .73.09.882.164l-.11.373a1.842 1.842 0 0 0-.784-.153c-.862 0-1.424.537-1.424 1.425 0 .899.541 1.429 1.366 1.429.3 0 .505-.041.61-.094v-1.056h-.72v-.37h1.167v1.705zM133.74 159.388l-.348-1.02c-.079-.23-.132-.44-.184-.647h-.01c-.053.211-.11.427-.179.642l-.347 1.025h1.067zm-1.163.357l-.368 1.115h-.473l1.204-3.543h.552l1.21 3.543h-.49l-.379-1.115h-1.256zM135.89 160.86v-3.543h.5l1.134 1.793c.263.415.468.788.636 1.15l.011-.004a15.44 15.44 0 0 1-.053-1.457v-1.482h.431v3.543h-.463l-1.124-1.798a11.357 11.357 0 0 1-.663-1.182l-.015.005c.026.447.036.872.036 1.46v1.515h-.43z" fill="#939597"/><g transform="translate(54 40.918)"><mask id="f" fill="#fff"><use xlink:href="#e"/></mask><path d="M16.948 35.79c.556-1.864 1.543-8.754-1.965-9.625a2.167 2.167 0 0 0-2.196.739c-2.247 2.76 1.991 7.293 4.161 8.886m36.243-18.925c1.863.556 8.754 1.544 9.626-1.965.2-.81-.092-1.67-.739-2.195-2.76-2.248-7.294 1.99-8.887 4.16m18.925 36.243c-.556 1.864-1.543 8.755 1.965 9.626.811.2 1.67-.091 2.196-.74 2.248-2.76-1.99-7.293-4.16-8.886M35.872 72.033c-1.864-.555-8.755-1.543-9.626 1.965-.2.81.092 1.67.74 2.196 2.76 2.248 7.294-1.99 8.886-4.161M16.948 53.108c-2.17 1.593-6.408 6.126-4.16 8.887a2.169 2.169 0 0 0 2.195.739c3.508-.871 2.521-7.762 1.965-9.626m18.925-36.243c-1.592-2.17-6.126-6.408-8.886-4.16a2.167 2.167 0 0 0-.74 2.195c.871 3.509 7.762 2.52 9.626 1.965M72.116 35.79c2.17-1.593 6.41-6.125 4.161-8.886a2.166 2.166 0 0 0-2.196-.74c-3.508.872-2.52 7.762-1.965 9.626M53.191 72.033c1.593 2.17 6.126 6.409 8.887 4.16a2.17 2.17 0 0 0 .74-2.195c-.873-3.508-7.764-2.52-9.627-1.965m34.822-27.584a2.128 2.128 0 0 0-.333-1.185c-1.936-3.04-8.12.056-9.734 1.185 1.614 1.13 7.798 4.224 9.734 1.186.23-.36.34-.774.333-1.186M44.533.968a2.133 2.133 0 0 0-1.187.333c-3.038 1.935.057 8.12 1.186 9.735 1.13-1.615 4.223-7.8 1.186-9.735a2.136 2.136 0 0 0-1.186-.333m-43.48 43.48c-.008.413.103.827.332 1.187 1.935 3.038 8.12-.056 9.735-1.186-1.615-1.13-7.8-4.224-9.735-1.185-.229.359-.34.773-.332 1.185m43.48 43.482c.412.006.825-.104 1.186-.333 3.037-1.936-.057-8.12-1.186-9.736-1.129 1.616-4.224 7.8-1.186 9.736.36.229.774.339 1.186.333m32.001-43.48c-.97-.873-2.203-2.44-2.855-3.467-1.022-1.615-1.955-3.31-2.465-5.123-.845-2.996-1.358-9.562 2.656-10.56a3.065 3.065 0 0 1 3.097 1.043c2.704 3.32-1.837 8.413-4.533 10.31.64 1.426 1.252 2.679 1.998 3.857a17.412 17.412 0 0 0 2.784 3.373c2.125-1.552 8.875-4.766 11.212-1.1.322.506.48 1.087.473 1.665a3.04 3.04 0 0 1-.473 1.665c-2.337 3.667-9.087.453-11.212-1.1a17.352 17.352 0 0 0-2.784 3.374c-.746 1.177-1.359 2.43-1.998 3.857 2.696 1.897 7.237 6.989 4.533 10.309a3.066 3.066 0 0 1-3.097 1.044c-4.014-.998-3.5-7.565-2.656-10.56.51-1.814 1.443-3.508 2.465-5.123.652-1.03 1.885-2.594 2.855-3.464M44.534 12.449c-.874.968-2.439 2.203-3.467 2.854-1.616 1.023-3.31 1.955-5.123 2.465-2.996.845-9.562 1.357-10.56-2.655a3.066 3.066 0 0 1 1.043-3.097c3.32-2.705 8.413 1.837 10.31 4.532 1.426-.64 2.68-1.252 3.857-1.997a17.425 17.425 0 0 0 3.373-2.785C42.414 9.642 39.201 2.89 42.868.554a3.033 3.033 0 0 1 1.664-.472 3.033 3.033 0 0 1 1.664.472c3.667 2.337.454 9.088-1.099 11.212a17.425 17.425 0 0 0 3.373 2.785c1.178.745 2.432 1.358 3.857 1.997 1.897-2.695 6.99-7.237 10.31-4.532a3.06 3.06 0 0 1 1.043 3.097c-.998 4.012-7.565 3.5-10.56 2.655-1.814-.51-3.507-1.442-5.124-2.465-1.027-.651-2.592-1.886-3.462-2.854M12.531 44.447c.97.874 2.204 2.439 2.855 3.468 1.023 1.615 1.955 3.309 2.465 5.123.845 2.995 1.357 9.562-2.655 10.56a3.066 3.066 0 0 1-3.098-1.044c-2.704-3.32 1.838-8.412 4.534-10.31-.64-1.425-1.253-2.68-1.998-3.856a17.396 17.396 0 0 0-2.785-3.373C9.724 46.567 2.974 49.78.636 46.114a3.038 3.038 0 0 1-.47-1.665 3.034 3.034 0 0 1 .47-1.664c2.338-3.667 9.088-.453 11.213 1.099a17.455 17.455 0 0 0 2.785-3.373c.745-1.178 1.358-2.431 1.998-3.857-2.696-1.897-7.238-6.99-4.534-10.31a3.065 3.065 0 0 1 3.098-1.043c4.012.998 3.5 7.564 2.655 10.56-.51 1.813-1.442 3.508-2.465 5.123-.65 1.028-1.886 2.594-2.855 3.463m32 32.003c.873-.97 2.438-2.203 3.465-2.854 1.617-1.023 3.31-1.955 5.123-2.466 2.996-.844 9.563-1.357 10.561 2.656a3.061 3.061 0 0 1-1.044 3.097c-3.319 2.704-8.412-1.837-10.309-4.533-1.425.639-2.679 1.252-3.857 1.998a17.382 17.382 0 0 0-3.373 2.784c1.553 2.125 4.766 8.875 1.1 11.213a3.033 3.033 0 0 1-1.665.472 3.033 3.033 0 0 1-1.664-.472c-3.667-2.338-.454-9.088 1.1-11.213a17.382 17.382 0 0 0-3.374-2.784c-1.178-.746-2.43-1.36-3.857-1.998-1.897 2.696-6.99 7.237-10.31 4.533a3.066 3.066 0 0 1-1.043-3.097c.998-4.013 7.564-3.5 10.56-2.656 1.813.51 3.507 1.443 5.123 2.466 1.028.65 2.593 1.885 3.463 2.854" fill="#EE4036" mask="url(#f)"/></g><path d="M99.287 112.625c.434-.338.876-.665 1.327-.979 5.359-3.736 11.998-5.87 19.142-5.81-.061-7.144 2.073-13.783 5.81-19.141.315-.452.64-.894.979-1.328a31.699 31.699 0 0 1-.98-1.327c-3.736-5.359-5.87-11.998-5.81-19.142-7.143.06-13.782-2.074-19.141-5.81a30.832 30.832 0 0 1-1.327-.979c-.434.338-.876.665-1.33.979-5.357 3.736-11.995 5.87-19.14 5.81.06 7.144-2.073 13.783-5.81 19.142-.313.451-.64.893-.978 1.327.338.434.665.876.979 1.328 3.736 5.358 5.87 11.997 5.81 19.141 7.144-.06 13.782 2.074 19.14 5.81.453.314.895.641 1.329.979m17.44-9.816c-.466.044-.936.099-1.41.166-4.266.597-8.21 1.878-11.871 3.946a33.36 33.36 0 0 0-4.16 2.792 33.36 33.36 0 0 0-4.158-2.792c-3.662-2.068-7.605-3.349-11.872-3.946a30.51 30.51 0 0 0-1.41-.166 33.58 33.58 0 0 0-.166-1.411c-.598-4.267-1.878-8.21-3.947-11.872a33.36 33.36 0 0 0-2.792-4.159 33.36 33.36 0 0 0 2.792-4.159c2.069-3.662 3.349-7.605 3.947-11.872.066-.474.12-.944.166-1.411.466-.044.937-.099 1.41-.165 4.267-.598 8.21-1.878 11.872-3.947a33.36 33.36 0 0 0 4.159-2.792 33.36 33.36 0 0 0 4.159 2.792c3.662 2.069 7.605 3.349 11.87 3.947.475.066.945.121 1.412.165.045.467.1.937.166 1.411.599 4.267 1.878 8.21 3.948 11.872a33.35 33.35 0 0 0 2.79 4.159 33.35 33.35 0 0 0-2.79 4.159c-2.07 3.662-3.35 7.605-3.948 11.872a35.33 35.33 0 0 0-.166 1.411m-17.441 1.539c3.997-2.758 8.532-4.649 13.333-5.646.999-4.803 2.89-9.337 5.648-13.335-2.757-3.997-4.65-8.532-5.648-13.335-4.801-.997-9.336-2.888-13.333-5.646-3.998 2.758-8.532 4.649-13.334 5.646-.998 4.803-2.89 9.338-5.646 13.335 2.757 3.998 4.648 8.532 5.646 13.335 4.802.997 9.336 2.888 13.334 5.646m14.09-4.89l-.277.055c-5 .995-9.711 2.981-13.813 5.921-4.102-2.94-8.812-4.926-13.813-5.921a27.289 27.289 0 0 0-.278-.055l-.055-.278c-.995-5.001-2.98-9.712-5.921-13.813 2.94-4.101 4.926-8.811 5.92-13.812.02-.093.038-.186.056-.279l.278-.054c5-.995 9.71-2.982 13.813-5.922 4.102 2.94 8.813 4.927 13.813 5.922l.278.054c.017.093.036.186.055.279.995 5.001 2.98 9.711 5.92 13.812-2.94 4.101-4.925 8.812-5.92 13.813-.02.092-.038.185-.055.278m-14.091 9.133a33.981 33.981 0 0 1 3.72-2.442c3.764-2.128 7.81-3.442 12.19-4.055a47.9 47.9 0 0 1 .724-.094c.029-.24.059-.481.093-.723.613-4.379 1.927-8.426 4.055-12.189a33.598 33.598 0 0 1 2.442-3.721 33.692 33.692 0 0 1-2.442-3.721c-2.128-3.763-3.442-7.81-4.055-12.188a37.853 37.853 0 0 1-.093-.725 31.18 31.18 0 0 1-.724-.093c-4.38-.613-8.426-1.928-12.19-4.055a33.886 33.886 0 0 1-3.72-2.442 33.981 33.981 0 0 1-3.721 2.442c-3.763 2.127-7.81 3.442-12.188 4.055-.243.034-.484.065-.725.093-.028.241-.06.482-.093.725-.613 4.378-1.927 8.425-4.055 12.188a33.846 33.846 0 0 1-2.443 3.721 33.751 33.751 0 0 1 2.443 3.721c2.128 3.763 3.442 7.81 4.055 12.189.034.242.065.483.093.723.24.029.482.061.725.094 4.378.613 8.425 1.927 12.188 4.055a33.981 33.981 0 0 1 3.72 2.442m21.379-1.846a31.223 31.223 0 0 0-.535-.016c-7.1-.138-13.701 1.947-19.007 5.647-.63.439-1.243.902-1.836 1.388a29.859 29.859 0 0 0-1.837-1.388c-5.306-3.7-11.907-5.785-19.006-5.647-.18.004-.358.009-.535.016.008-.177.012-.355.016-.536.138-7.098-1.947-13.7-5.647-19.005a29.859 29.859 0 0 0-1.388-1.837c.486-.594.949-1.206 1.388-1.837 3.7-5.305 5.785-11.907 5.647-19.006-.004-.18-.008-.358-.015-.535.176.007.355.012.534.016 7.099.139 13.7-1.947 19.006-5.647.63-.44 1.243-.902 1.837-1.388.593.486 1.207.948 1.836 1.388 5.306 3.7 11.908 5.786 19.007 5.647.179-.004.358-.009.535-.016a30.87 30.87 0 0 0-.017.535c-.137 7.099 1.948 13.701 5.648 19.006.439.631.903 1.243 1.387 1.837a30.67 30.67 0 0 0-1.387 1.837c-3.7 5.305-5.785 11.907-5.648 19.005.004.181.01.359.017.536" fill="#EE4036"/><path d="M123.6 85.367c1.66-2.126 3.637-4.155 5.957-6.093.442-.37 1.72-1.157 2.282-.525.558.63-.67 1.8-1.04 2.118a30.93 30.93 0 0 0-4.287 4.5 30.887 30.887 0 0 0 4.287 4.5c.37.318 1.598 1.488 1.04 2.119-.562.632-1.84-.155-2.282-.525-2.32-1.94-4.297-3.967-5.957-6.094M99.287 61.055c-2.128-1.662-4.156-3.64-6.095-5.96-.369-.44-1.157-1.718-.524-2.28.631-.56 1.801.67 2.117 1.039a30.996 30.996 0 0 0 4.502 4.287 30.982 30.982 0 0 0 4.5-4.287c.317-.37 1.487-1.598 2.117-1.04.633.563-.154 1.84-.524 2.282-1.939 2.319-3.967 4.297-6.093 5.959M74.974 85.367c-1.662 2.127-3.64 4.155-5.959 6.094-.442.37-1.719 1.157-2.28.525-.56-.631.67-1.801 1.038-2.118a30.834 30.834 0 0 0 4.287-4.501 30.877 30.877 0 0 0-4.287-4.5c-.369-.317-1.598-1.487-1.039-2.118.562-.632 1.84.155 2.281.525 2.32 1.938 4.297 3.967 5.96 6.093m24.312 24.313c2.126 1.662 4.154 3.639 6.093 5.958.37.442 1.157 1.72.524 2.282-.63.559-1.8-.67-2.117-1.04a30.989 30.989 0 0 0-4.5-4.287 31.003 31.003 0 0 0-4.502 4.288c-.316.369-1.486 1.598-2.117 1.039-.633-.562.155-1.84.524-2.282 1.94-2.32 3.967-4.296 6.095-5.958m0 4.049a30.232 30.232 0 0 1 3.827 3.729c.716.84 2.271 2.106 3.377 1.125 1.055-.934.3-2.643-.43-3.516-2.144-2.565-4.397-4.723-6.774-6.506-2.378 1.783-4.632 3.94-6.776 6.506-.729.873-1.483 2.582-.43 3.516 1.106.98 2.662-.285 3.378-1.125a30.174 30.174 0 0 1 3.828-3.73m28.362-28.361a30.217 30.217 0 0 1 3.727-3.827c.841-.716 2.106-2.272 1.127-3.378-.935-1.054-2.644-.3-3.517.43-2.565 2.144-4.723 4.399-6.506 6.775 1.783 2.377 3.941 4.63 6.506 6.775.873.729 2.582 1.484 3.517.43.98-1.106-.286-2.661-1.127-3.377a30.158 30.158 0 0 1-3.727-3.828M99.287 57.005a30.098 30.098 0 0 1-3.828-3.728c-.716-.84-2.272-2.106-3.378-1.126-1.053.935-.299 2.644.43 3.517 2.144 2.565 4.398 4.723 6.776 6.506 2.377-1.783 4.63-3.941 6.774-6.506.73-.873 1.485-2.582.43-3.517-1.106-.98-2.66.286-3.377 1.126a30.156 30.156 0 0 1-3.827 3.728M70.924 85.367a30.098 30.098 0 0 1-3.728 3.828c-.84.716-2.106 2.27-1.126 3.378.935 1.053 2.644.298 3.516-.431 2.566-2.144 4.724-4.398 6.507-6.775-1.783-2.376-3.94-4.631-6.507-6.774-.872-.73-2.58-1.485-3.516-.431-.98 1.106.286 2.662 1.126 3.378a30.156 30.156 0 0 1 3.728 3.827m28.363 20.038a33.537 33.537 0 0 1 7.648 7.583l.72-.522a34.414 34.414 0 0 0-8.368-8.146 34.421 34.421 0 0 0-8.369 8.146l.72.522a33.5 33.5 0 0 1 7.65-7.583m20.036-20.038a33.516 33.516 0 0 1 7.583-7.648l-.522-.72a34.436 34.436 0 0 0-8.146 8.368 34.4 34.4 0 0 0 8.146 8.368l.522-.72a33.5 33.5 0 0 1-7.583-7.648M99.287 65.33a33.485 33.485 0 0 1-7.649-7.584l-.72.522a34.426 34.426 0 0 0 8.37 8.147 34.418 34.418 0 0 0 8.366-8.147l-.719-.522a33.521 33.521 0 0 1-7.648 7.584M79.25 85.367a33.525 33.525 0 0 1-7.584 7.649l.522.719a34.386 34.386 0 0 0 8.147-8.368 34.422 34.422 0 0 0-8.147-8.368l-.522.72a33.541 33.541 0 0 1 7.584 7.648M107.635 83.86a8.349 8.349 0 1 1-16.698 0 8.349 8.349 0 0 1 16.698 0" fill="#EE4036"/></g></svg>
