<svg width="200" height="200" viewBox="0 0 200 200" xmlns="http://www.w3.org/2000/svg" xmlns:xlink="http://www.w3.org/1999/xlink"><title>7</title><defs><path id="a" d="M41.511.94H.01v60.08H41.51z"/><path id="c" d="M9.634 13.57V.155H.447v13.413h9.187z"/><path id="e" d="M0 120.06h157.759V1.1H0z"/></defs><g transform="translate(21 40)" fill="none" fill-rule="evenodd"><path d="M98.242 1.3L31.925 78.161h21.352l42.72-49.466c6.62-7.666 7.53-18.748 2.245-27.397z" fill="#F5AF1F"/><path d="M85.665 78.162h27.611c1.528 0 2.94-.817 3.703-2.144a4.297 4.297 0 0 0 0-4.287l-10.42-18.094-20.894 24.525z" fill="#91699C"/><g transform="translate(41.694 .16)"><mask id="b" fill="#fff"><use xlink:href="#a"/></mask><path fill="#4DBDBD" mask="url(#b)" d="M41.511 12.92L34.61.939.01 61.02z"/></g><path d="M109.103 19.572L58.6 78.162h22.219l26.36-30.938c6.101-7.165 7.793-17.792 1.924-27.652" fill="#E4547F"/><path d="M4.76 91.804H.156A8.282 8.282 0 0 1 0 90.18c0-.533.051-1.058.155-1.573h12.994c.103.515.155 1.04.155 1.573 0 .567-.052 1.11-.155 1.625H8.543v15.349c-.308.034-.618.065-.926.09-.309.026-.61.038-.901.038-.292 0-.605-.007-.94-.025-.333-.018-.673-.05-1.015-.103V91.804zM13.432 93.816c.257-.051.501-.09.733-.115.231-.027.485-.04.76-.04.256 0 .51.018.758.052.248.035.493.078.733.129.052.087.1.21.142.374.043.164.081.335.116.516.034.181.065.361.09.542l.064.45c.377-.532.84-1.009 1.39-1.43.549-.422 1.234-.633 2.058-.633.172 0 .369.01.592.027.222.016.386.043.49.077.033.171.058.37.076.593.017.223.026.456.026.697 0 .293-.013.61-.038.954a6.894 6.894 0 0 1-.143.98 3.545 3.545 0 0 0-.63-.052h-.424c-.292 0-.618.03-.978.091-.36.06-.703.22-1.03.478-.326.257-.596.643-.81 1.16-.215.516-.321 1.238-.321 2.167v6.345c-.31.052-.618.087-.926.103a15.852 15.852 0 0 1-1.789 0 9.202 9.202 0 0 1-.94-.103V93.816zM30.158 101.04a11.45 11.45 0 0 0-.67-.09 6.218 6.218 0 0 0-.643-.04c-.84 0-1.505.151-1.994.452-.489.3-.733.786-.733 1.457 0 .447.094.791.283 1.032.188.24.416.418.681.53.266.111.549.18.85.206.3.025.561.038.785.038.257 0 .513-.022.771-.064.258-.043.48-.082.67-.116v-3.406zm0-2.658c0-.413-.07-.748-.207-1.006a1.555 1.555 0 0 0-.566-.607 2.366 2.366 0 0 0-.888-.296 8.085 8.085 0 0 0-1.17-.077c-.926 0-1.913.18-2.96.541a7.062 7.062 0 0 1-.54-1.263c-.12-.395-.18-.868-.18-1.42.755-.257 1.51-.446 2.264-.567.755-.12 1.459-.18 2.11-.18 1.784 0 3.179.43 4.182 1.289 1.004.86 1.505 2.236 1.505 4.128v7.739c-.601.189-1.33.37-2.187.542-.858.171-1.826.258-2.907.258-.876 0-1.678-.077-2.406-.233-.73-.155-1.355-.412-1.879-.773a3.639 3.639 0 0 1-1.209-1.394c-.283-.567-.425-1.263-.425-2.089 0-.826.176-1.518.528-2.077a4.07 4.07 0 0 1 1.363-1.342 6.048 6.048 0 0 1 1.866-.721 9.837 9.837 0 0 1 2.059-.219c.497 0 1.045.025 1.647.077v-.31zM35.02 93.842a7.466 7.466 0 0 1 1.146-.155c.35-.016.656-.025.912-.025.344 0 .686.008 1.03.025.343.018.66.06.952.13l2.908 9.93 2.856-9.93c.292-.052.6-.09.926-.117.326-.025.653-.038.978-.038.257 0 .553.008.888.025.335.018.716.07 1.145.155l-5.043 13.311a9.29 9.29 0 0 1-1.03.102c-.36.018-.66.027-.9.027-.257 0-.55-.009-.875-.026a5.221 5.221 0 0 1-.927-.128L35.02 93.842zM58.307 99.053c-.034-.826-.261-1.491-.681-1.999-.422-.507-1.009-.762-1.764-.762-.858 0-1.51.242-1.955.723-.446.482-.712 1.16-.797 2.038h5.197zm-5.223 2.553c.068 1.033.428 1.78 1.081 2.244.65.464 1.509.698 2.573.698.583 0 1.18-.056 1.788-.168a10.123 10.123 0 0 0 1.736-.478c.19.345.353.758.49 1.239.137.482.214.997.231 1.547-1.337.517-2.847.776-4.528.776-1.236 0-2.294-.174-3.178-.517-.884-.345-1.604-.82-2.162-1.431a5.762 5.762 0 0 1-1.235-2.18c-.266-.843-.399-1.763-.399-2.76a9 9 0 0 1 .413-2.761 6.46 6.46 0 0 1 1.22-2.244 5.811 5.811 0 0 1 2.009-1.51c.796-.37 1.728-.554 2.791-.554.927 0 1.75.163 2.47.49.72.326 1.334.774 1.841 1.341a5.676 5.676 0 0 1 1.144 2.026c.257.783.387 1.62.387 2.514a11.716 11.716 0 0 1-.13 1.728h-8.542zM64.535 88.296a11.033 11.033 0 0 1 1.827-.155c.582 0 1.183.051 1.8.155v13.543c0 .534.03.964.091 1.29.06.326.154.58.282.76a.99.99 0 0 0 .503.376c.206.068.463.102.771.102a4.367 4.367 0 0 0 .926-.102c.189.704.284 1.392.284 2.063v.373c0 .112-.017.238-.052.374a4.743 4.743 0 0 1-.99.18c-.386.036-.743.052-1.069.052-1.32 0-2.38-.364-3.177-1.095-.798-.73-1.196-1.922-1.196-3.573V88.296z" fill="#1A2651"/><path d="M82.65 100.524l-1.056-8.952-3.91 8.952h4.966zm-2.163-11.919c.223-.034.494-.056.812-.065a27.19 27.19 0 0 1 1.62 0c.266.01.502.031.708.065l2.522 18.547a14.14 14.14 0 0 1-1.493.079c-.411 0-.832-.026-1.26-.079l-.49-4.359H76.68l-1.879 4.36c-.411.052-.874.078-1.389.078-.241 0-.477-.005-.708-.014a4.372 4.372 0 0 1-.63-.065l8.413-18.547zM98.32 95.88a3.903 3.903 0 0 0-.643-.103 10.216 10.216 0 0 0-.747-.026c-.858 0-1.625.197-2.302.593a5.801 5.801 0 0 0-1.75 1.586 7.426 7.426 0 0 0-1.12 2.244 8.683 8.683 0 0 0-.387 2.568c0 .825.146 1.466.439 1.921.292.456.729.685 1.312.685.531 0 1.046-.173 1.544-.516.497-.345.952-.822 1.364-1.432.411-.61.771-1.324 1.08-2.141.309-.817.548-1.69.722-2.618l.488-2.761zm1.492 5.65a65.1 65.1 0 0 0-.438 2.657c-.102.74-.153 1.385-.153 1.934v.53c0 .128.016.288.051.478a7.151 7.151 0 0 1-1.801.077 5.796 5.796 0 0 1-.567-.077 5.252 5.252 0 0 1-.09-.454 4.562 4.562 0 0 1-.038-.683c0-.205.02-.494.064-.863.042-.37.107-.71.194-1.021-.208.38-.464.767-.773 1.163-.309.395-.669.756-1.08 1.082a5.588 5.588 0 0 1-1.377.8 4.278 4.278 0 0 1-1.634.31c-1.132 0-1.99-.374-2.574-1.122-.582-.75-.875-1.769-.875-3.058 0-1.22.189-2.411.568-3.573a9.457 9.457 0 0 1 1.67-3.095c.738-.902 1.66-1.628 2.768-2.18 1.106-.55 2.38-.824 3.82-.824.19 0 .387.007.593.025.205.018.376.034.514.052.19-.998.335-1.858.437-2.58.103-.723.155-1.358.155-1.91v-.515c0-.12-.009-.267-.025-.438.188-.035.415-.06.681-.078a11.283 11.283 0 0 1 1.26-.012c.216.007.408.03.58.063.052.345.077.663.077.954 0 .397-.039.904-.115 1.523a32.67 32.67 0 0 1-.271 1.78l-1.621 9.055zM103.337 93.92a8.967 8.967 0 0 1 1.339-.103c.257 0 .5.008.732.026.232.016.45.042.656.077l1.493 10.628 3.32-6.682a22.98 22.98 0 0 0 .952-2.205c.24-.662.369-1.183.385-1.561v-.18a9.835 9.835 0 0 1 1.414-.103c.258 0 .512.008.76.026.249.016.477.042.682.077v.128c0 .275-.042.565-.128.865-.086.301-.25.692-.49 1.174a229.103 229.103 0 0 1-2.997 5.558c-1.02 1.831-2.038 3.668-3.05 5.508a11.8 11.8 0 0 1-1.337.078c-.188 0-.417-.005-.682-.014a4.628 4.628 0 0 1-.682-.064l-2.367-13.233zM118.261 91.186c0-.5.043-.973.128-1.42.086-.447.198-.903.335-1.367.24-.034.497-.06.772-.078.274-.016.514-.025.72-.025.207 0 .442.009.708.025.266.018.511.044.734.078-.018.499-.07.976-.155 1.433-.086.455-.197.906-.334 1.354-.24.034-.498.056-.773.063a22.503 22.503 0 0 1-1.414 0 5.353 5.353 0 0 1-.721-.063zm.025 4.771h-1.595c0-.344.022-.678.065-1.005a4.55 4.55 0 0 1 .27-1.033h4.116l-2.315 13.234a4.672 4.672 0 0 1-.656.064 13.921 13.921 0 0 1-1.249 0 4.385 4.385 0 0 1-.591-.064l1.955-11.196zM126.495 100.936a8.537 8.537 0 0 1-.824-.387 3.271 3.271 0 0 1-.798-.594 2.976 2.976 0 0 1-.604-.915c-.164-.37-.244-.813-.244-1.329 0-.636.129-1.207.385-1.715a3.72 3.72 0 0 1 1.081-1.289 5.09 5.09 0 0 1 1.66-.813c.643-.19 1.359-.284 2.149-.284.703 0 1.372.077 2.006.232.635.154 1.133.327 1.494.516a6.37 6.37 0 0 1-.748 1.934 8.113 8.113 0 0 0-1.209-.424 5.995 5.995 0 0 0-1.647-.22c-.737 0-1.35.13-1.839.387-.489.257-.734.706-.734 1.342 0 .395.117.726.348.993.232.266.646.52 1.248.76l.566.259c.326.154.664.318 1.016.49a4.3 4.3 0 0 1 .952.632c.283.25.515.55.696.903.179.352.269.786.269 1.302 0 .825-.154 1.536-.463 2.129a4.113 4.113 0 0 1-1.274 1.47 5.723 5.723 0 0 1-1.879.864c-.71.189-1.479.285-2.303.285-.685 0-1.36-.062-2.019-.182-.66-.12-1.205-.275-1.633-.464.033-.378.097-.74.192-1.083.094-.344.236-.671.425-.98.446.19.968.34 1.57.45a9.13 9.13 0 0 0 1.672.168c.429 0 .831-.039 1.209-.116a3.13 3.13 0 0 0 .977-.36 1.86 1.86 0 0 0 .658-.66c.162-.273.244-.619.244-1.031 0-.533-.154-.932-.464-1.2-.308-.267-.746-.51-1.312-.734l-.823-.336zM139.515 105.425c.806 0 1.496-.22 2.071-.658a5.095 5.095 0 0 0 1.403-1.664 8.365 8.365 0 0 0 .797-2.18c.172-.783.257-1.518.257-2.205 0-.98-.218-1.728-.655-2.245-.438-.515-1.06-.774-1.865-.774-.808 0-1.494.224-2.06.671a5.311 5.311 0 0 0-1.389 1.677 8.058 8.058 0 0 0-.785 2.179c-.163.783-.244 1.51-.244 2.181 0 .979.21 1.728.63 2.244.42.516 1.033.774 1.84.774m-.257 2.039c-1.595 0-2.797-.444-3.603-1.33-.807-.886-1.21-2.136-1.21-3.753 0-.946.147-1.939.439-2.98a9.024 9.024 0 0 1 1.35-2.838 7.714 7.714 0 0 1 2.29-2.114c.918-.56 2.003-.839 3.256-.839 1.611 0 2.822.447 3.627 1.342.806.894 1.21 2.15 1.21 3.766 0 .962-.146 1.96-.438 2.992a9.189 9.189 0 0 1-1.338 2.823 7.331 7.331 0 0 1-2.29 2.105c-.926.55-2.024.826-3.293.826" fill="#243668"/><g transform="translate(148.125 93.66)"><mask id="d" fill="#fff"><use xlink:href="#c"/></mask><path d="M.447 13.492c.189-1.082.4-2.226.63-3.43.232-1.204.446-2.369.644-3.497.197-1.125.364-2.158.501-3.094.137-.938.206-1.682.206-2.232 0-.223-.004-.4-.013-.529A4.268 4.268 0 0 0 2.35.233c.19-.034.395-.055.618-.064a14.309 14.309 0 0 1 1.197 0c.214.009.407.03.58.064.034.137.059.288.076.45.017.166.026.393.026.685 0 .396-.026.782-.077 1.16.223-.309.467-.601.733-.876.266-.275.562-.524.887-.747a4.19 4.19 0 0 1 1.081-.53A4.223 4.223 0 0 1 8.785.18c.136 0 .286.009.45.026.162.017.295.043.399.077 0 .346-.04.735-.116 1.175-.077.438-.211.812-.4 1.121a3.784 3.784 0 0 0-.746-.077c-1.15 0-2.08.413-2.791 1.239-.712.825-1.223 2.097-1.532 3.817l-1.054 5.933a7.274 7.274 0 0 1-1.056.077h-.643l-.85-.077z" fill="#243668" mask="url(#d)"/></g><path fill="#819BB1" d="M31.657 115.213h-1.623v-.588h3.95v.588h-1.63v4.76h-.697zM35.786 117.331c0 1.142.617 2.167 1.702 2.167 1.092 0 1.71-1.009 1.71-2.223 0-1.064-.555-2.174-1.702-2.174-1.14 0-1.71 1.056-1.71 2.23m4.139-.087c0 1.842-1.116 2.816-2.477 2.816-1.41 0-2.398-1.094-2.398-2.712 0-1.699 1.052-2.81 2.477-2.81 1.456 0 2.398 1.119 2.398 2.706M42.51 114.625v3.167c0 1.198.53 1.706 1.242 1.706.792 0 1.298-.525 1.298-1.706v-3.167h.697v3.119c0 1.642-.863 2.316-2.018 2.316-1.093 0-1.916-.627-1.916-2.286v-3.149h.697zM48.632 117.132h.705c.735 0 1.202-.403 1.202-1.015 0-.69-.498-.991-1.226-1-.333 0-.57.032-.68.065v1.95zm-.689-2.435a7.146 7.146 0 0 1 1.322-.111c.737 0 1.212.135 1.543.436.27.24.42.603.42 1.016 0 .706-.443 1.173-1.005 1.365v.024c.412.142.657.523.784 1.078.174.746.3 1.262.411 1.469h-.712c-.087-.152-.206-.612-.356-1.278-.158-.739-.444-1.016-1.07-1.039h-.648v2.317h-.689v-5.277z"/><mask id="f" fill="#fff"><use xlink:href="#e"/></mask><path fill="#819BB1" mask="url(#f)" d="M53.204 119.974h.688v-5.349h-.688zM56.1 119.974v-5.349h.752l1.71 2.706c.394.626.703 1.19.956 1.737l.017-.007a23.717 23.717 0 0 1-.08-2.198v-2.238h.65v5.349h-.697l-1.694-2.714c-.372-.596-.728-1.206-.997-1.787l-.023.01c.038.674.055 1.316.055 2.205v2.286h-.65zM66.37 119.735a4.928 4.928 0 0 1-1.639.294c-.808 0-1.473-.207-1.995-.705-.458-.446-.744-1.16-.744-1.993.008-1.595 1.1-2.76 2.89-2.76.617 0 1.099.134 1.328.245l-.166.563c-.285-.126-.64-.23-1.18-.23-1.296 0-2.143.809-2.143 2.15 0 1.357.814 2.158 2.057 2.158.451 0 .76-.064.919-.142v-1.595H64.61v-.556h1.758v2.571zM73.717 117.752l-.522-1.54c-.119-.349-.198-.666-.278-.976h-.015c-.08.318-.167.643-.27.968l-.521 1.548h1.606zm-1.749.538l-.554 1.684H70.7l1.813-5.35h.831l1.82 5.35h-.736l-.57-1.684h-1.891zM76.95 119.974v-5.349h.753l1.71 2.706c.395.626.703 1.19.957 1.737l.016-.007a23.717 23.717 0 0 1-.079-2.198v-2.238h.649v5.349h-.697l-1.694-2.714c-.372-.596-.728-1.206-.997-1.787l-.024.01c.04.674.056 1.316.056 2.205v2.286h-.65zM83.85 119.426c.174.03.426.04.695.04 1.472 0 2.272-.826 2.272-2.269.008-1.263-.704-2.063-2.161-2.063-.356 0-.625.03-.807.071v4.22zm-.69-4.73c.42-.062.918-.11 1.465-.11.988 0 1.693.23 2.16.666.475.437.752 1.055.752 1.92 0 .873-.269 1.588-.767 2.079-.5.5-1.322.77-2.36.77-.49 0-.901-.024-1.25-.064v-5.26zM92.803 115.213H91.18v-.588h3.95v.588H93.5v4.76h-.697zM97.415 117.132h.704c.735 0 1.204-.403 1.204-1.015 0-.69-.5-.991-1.227-1-.333 0-.57.032-.681.065v1.95zm-.688-2.435a7.143 7.143 0 0 1 1.321-.111c.736 0 1.211.135 1.543.436.27.24.42.603.42 1.016 0 .706-.443 1.173-1.005 1.365v.024c.411.142.657.523.783 1.078.174.746.3 1.262.412 1.469h-.712c-.087-.152-.207-.612-.357-1.278-.158-.739-.442-1.016-1.069-1.039h-.648v2.317h-.688v-5.277zM104.638 117.752l-.522-1.54c-.119-.349-.198-.666-.278-.976h-.015c-.08.318-.166.643-.27.968l-.521 1.548h1.606zm-1.75.538l-.553 1.684h-.712l1.812-5.35h.831l1.82 5.35h-.736l-.57-1.684h-1.891zM108.624 119.974l-1.741-5.349h.744l.831 2.635c.23.721.427 1.373.57 2h.015c.151-.62.373-1.294.61-1.992l.902-2.643h.736l-1.907 5.349h-.76zM115.634 117.466h-2.074v1.928h2.31v.58h-3v-5.349h2.881v.58h-2.191v1.69h2.074zM117.768 114.625h.688v4.769h2.28v.58h-2.968z"/></g></svg>
